<svg width="20" height="14" viewBox="0 0 20 14" fill="none" xmlns="http://www.w3.org/2000/svg">
<path d="M11.6667 4.50008H9.58341C8.89306 4.50008 8.33341 5.05972 8.33341 5.75008C8.33341 6.44044 8.89306 7.00008 9.58341 7.00008H10.4167C11.1071 7.00008 11.6667 7.55973 11.6667 8.25008C11.6667 8.94044 11.1071 9.50008 10.4167 9.50008H8.33341M10.0001 3.66675V4.50008M10.0001 9.50008V10.3334M15.0001 7.00008H15.0084M5.00008 7.00008H5.00841M1.66675 3.83341L1.66675 10.1667C1.66675 11.1002 1.66675 11.5669 1.8484 11.9234C2.00819 12.237 2.26316 12.492 2.57676 12.6518C2.93328 12.8334 3.39999 12.8334 4.33341 12.8334L15.6667 12.8334C16.6002 12.8334 17.0669 12.8334 17.4234 12.6518C17.737 12.492 17.992 12.237 18.1518 11.9234C18.3334 11.5669 18.3334 11.1002 18.3334 10.1667V3.83342C18.3334 2.89999 18.3334 2.43328 18.1518 2.07677C17.992 1.76316 17.737 1.50819 17.4234 1.34841C17.0669 1.16675 16.6002 1.16675 15.6667 1.16675L4.33342 1.16675C3.39999 1.16675 2.93328 1.16675 2.57676 1.3484C2.26316 1.50819 2.00819 1.76316 1.8484 2.07676C1.66675 2.43328 1.66675 2.89999 1.66675 3.83341ZM15.4167 7.00008C15.4167 7.2302 15.2302 7.41675 15.0001 7.41675C14.77 7.41675 14.5834 7.2302 14.5834 7.00008C14.5834 6.76996 14.77 6.58341 15.0001 6.58341C15.2302 6.58341 15.4167 6.76996 15.4167 7.00008ZM5.41675 7.00008C5.41675 7.2302 5.2302 7.41675 5.00008 7.41675C4.76996 7.41675 4.58341 7.2302 4.58341 7.00008C4.58341 6.76996 4.76996 6.58341 5.00008 6.58341C5.2302 6.58341 5.41675 6.76996 5.41675 7.00008Z" stroke="#242588" stroke-width="1.66667" stroke-linecap="round" stroke-linejoin="round"/>
</svg>
