<svg width="28" height="31" viewBox="0 0 28 31" fill="none" xmlns="http://www.w3.org/2000/svg">
<path d="M27.5 24.957C27.3216 26.3884 27.2435 27.0089 26.5771 28.4043L16.3447 30.5C16.5799 28.9918 16.8937 27.8286 17.4033 27.1309L27.5 24.957ZM13.248 15.085L16.3057 14.4268V4.8418C17.4449 3.57308 18.1453 3.00333 19.5205 2.2832V13.7344L27.5 12.0156C27.3216 13.4471 27.2435 14.0676 26.5771 15.4629L19.5205 16.9424V20.1611L27.5 18.4863C27.3216 19.9178 27.2434 20.5384 26.5771 21.9336L19.5205 23.3789V23.4102L16.3057 24.0684V17.6172L13.248 18.2578V22.3242L13.1963 22.334C12.493 23.5574 11.5 25.0277 10.543 26.2012L0.5 28.0977C0.590043 26.8158 0.778053 26.0939 1.3623 24.8027L10.0332 22.9375V18.9326L1.99707 20.6191C2.08712 19.3372 2.27505 18.6145 2.85938 17.3232L10.0332 15.7773V3.05859C11.1725 1.78987 11.8729 1.22013 13.248 0.5V15.085Z" fill="#1A1C1E"/>
</svg>
