<svg width="20" height="20" viewBox="0 0 20 20" fill="none" xmlns="http://www.w3.org/2000/svg">
<path d="M12.5001 2.04825C11.7109 1.80038 10.8711 1.66675 10.0001 1.66675C5.39771 1.66675 1.66675 5.39771 1.66675 10.0001C1.66675 14.6025 5.39771 18.3334 10.0001 18.3334C14.6025 18.3334 18.3334 14.6025 18.3334 10.0001C18.3334 8.57064 17.9735 7.22526 17.3394 6.04962M14.1667 4.79175H14.1709M8.75013 18.2403L8.75022 16.4042C8.75022 16.3047 8.7858 16.2086 8.85052 16.133L10.922 13.7163C11.0922 13.5176 11.0395 13.2131 10.8124 13.0833L8.43219 11.7232C8.36752 11.6862 8.31394 11.6326 8.27703 11.5679L6.72546 8.84894C6.64471 8.70743 6.48889 8.62597 6.32661 8.64042L1.72023 9.0507M17.5001 5.00008C17.5001 6.84103 15.8334 8.33341 14.1667 10.0001C12.5001 8.33341 10.8334 6.84103 10.8334 5.00008C10.8334 3.15913 12.3258 1.66675 14.1667 1.66675C16.0077 1.66675 17.5001 3.15913 17.5001 5.00008ZM14.3751 4.79175C14.3751 4.90681 14.2818 5.00008 14.1667 5.00008C14.0517 5.00008 13.9584 4.90681 13.9584 4.79175C13.9584 4.67669 14.0517 4.58341 14.1667 4.58341C14.2818 4.58341 14.3751 4.67669 14.3751 4.79175Z" stroke="#242588" stroke-width="1.66667" stroke-linecap="round" stroke-linejoin="round"/>
</svg>
