<svg width="20" height="24" viewBox="0 0 20 24" fill="none" xmlns="http://www.w3.org/2000/svg">
<path d="M9.88889 0.613281C13.3835 0.613281 16.1954 3.36321 16.1954 6.75818V8.50433C18.1568 9.11655 19.5859 10.8921 19.5859 13.0129V18.6349C19.5859 21.2604 17.4093 23.389 14.7258 23.389H5.08781C2.40319 23.389 0.226562 21.2604 0.226562 18.6349V13.0129C0.226562 10.8921 1.65682 9.11655 3.61706 8.50433V6.75818C3.62863 3.36321 6.44054 0.613281 9.88889 0.613281ZM9.90047 13.5775C9.34503 13.5775 8.89373 14.0189 8.89373 14.5621V17.0744C8.89373 17.6289 9.34503 18.0702 9.90047 18.0702C10.4675 18.0702 10.9188 17.6289 10.9188 17.0744V14.5621C10.9188 14.0189 10.4675 13.5775 9.90047 13.5775ZM9.91204 2.59368C7.56299 2.59368 5.65367 4.4496 5.6421 6.73555V8.25876H14.1704V6.75818C14.1704 4.46092 12.2611 2.59368 9.91204 2.59368Z" fill="#5A5A5A"/>
</svg>
