<svg width="20" height="20" viewBox="0 0 20 20" fill="none" xmlns="http://www.w3.org/2000/svg">
<g clip-path="url(#clip0_656_21510)">
<path d="M4.98237 1.32304C4.30755 1.2961 3.63424 1.52631 3.12341 2.02618L1.83193 3.28983C1.31548 3.79521 1.15205 4.45617 1.21306 5.08384C1.27406 5.71151 1.52611 6.328 1.8153 6.91689C5.013 11.5779 9.756 18.4355 14.9478 19.1178C15.5735 19.1929 16.238 19.0446 16.7545 18.5391L18.046 17.2754C19.0677 16.2757 19.0247 14.6029 17.9904 13.5459L16.0816 11.5954C15.723 11.229 15.1536 11.1563 14.7147 11.421L12.2028 12.9363C12.0788 13.0111 11.6731 13.0413 11.5592 12.9912C9.55119 12.1086 8.11295 10.695 7.26304 8.60769C7.21613 8.49248 7.2569 8.08513 7.33494 7.96175L8.90397 5.48315C9.17816 5.05002 9.11793 4.47958 8.75941 4.1132L6.85058 2.16264C6.3334 1.63414 5.65718 1.34997 4.98237 1.32304Z" fill="#5A5A5A"/>
<path d="M10.549 1.83676C10.4929 1.83499 10.437 1.84429 10.3845 1.86413C10.3321 1.88396 10.284 1.91393 10.2431 1.95234C10.2022 1.99075 10.1693 2.03683 10.1462 2.08797C10.1231 2.1391 10.1104 2.19428 10.1086 2.25036C10.105 2.36354 10.1466 2.4735 10.224 2.55608C10.3015 2.63866 10.4086 2.68709 10.5218 2.69073C12.341 2.74885 14.1348 3.49872 15.48 4.932C16.7612 6.29704 17.398 8.02859 17.4064 9.76218C17.407 9.87543 17.4524 9.98384 17.5329 10.0636C17.6133 10.1433 17.7221 10.1878 17.8354 10.1873C17.8915 10.1871 17.947 10.1758 17.9987 10.154C18.0504 10.1323 18.0974 10.1006 18.1369 10.0607C18.1764 10.0209 18.2076 9.97362 18.2288 9.92167C18.25 9.86972 18.2608 9.8141 18.2605 9.75799C18.251 7.8175 17.5345 5.87232 16.1029 4.34703C14.5998 2.7455 12.5852 1.90181 10.549 1.83676Z" fill="#5A5A5A"/>
<path d="M10.4789 3.8641C10.4228 3.86234 10.3669 3.87164 10.3145 3.89147C10.262 3.9113 10.2139 3.94128 10.173 3.97968C10.1321 4.01809 10.0992 4.06418 10.0761 4.11531C10.0531 4.16645 10.0403 4.22163 10.0385 4.2777C10.0368 4.3338 10.0461 4.3897 10.066 4.4422C10.0858 4.49471 10.1158 4.54278 10.1543 4.58367C10.1927 4.62457 10.2389 4.65748 10.29 4.68053C10.3412 4.70358 10.3964 4.71632 10.4525 4.71802C11.7544 4.75836 13.0375 5.29348 14.0005 6.31953C14.917 7.29603 15.3716 8.53374 15.3772 9.7735C15.3778 9.88675 15.4232 9.99516 15.5037 10.0749C15.5841 10.1546 15.6929 10.1991 15.8062 10.1987C15.9194 10.1981 16.0278 10.1527 16.1076 10.0722C16.1873 9.99179 16.2318 9.88298 16.2313 9.76973C16.2248 8.32297 15.6904 6.87181 14.6234 5.73499C13.5023 4.54049 11.9981 3.91118 10.4789 3.8641Z" fill="#5A5A5A"/>
<path d="M10.4198 5.92466C10.3637 5.92284 10.3078 5.93208 10.2553 5.95186C10.2028 5.97164 10.1547 6.00157 10.1138 6.03994C10.0728 6.07832 10.0399 6.12438 10.0167 6.1755C9.99361 6.22662 9.98078 6.28179 9.97899 6.33787C9.97716 6.39395 9.9864 6.44984 10.0062 6.50234C10.026 6.55484 10.0559 6.60294 10.0943 6.64387C10.1326 6.68481 10.1787 6.71778 10.2298 6.74091C10.2809 6.76404 10.3361 6.77687 10.3922 6.77867C11.1655 6.8036 11.9262 7.12107 12.4988 7.73113C13.0448 8.31279 13.3141 9.04813 13.3172 9.78602C13.3174 9.84214 13.3287 9.89766 13.3504 9.94942C13.372 10.0012 13.4037 10.0482 13.4435 10.0877C13.4834 10.1272 13.5306 10.1585 13.5825 10.1798C13.6345 10.201 13.6901 10.2118 13.7462 10.2116C13.8023 10.2114 13.8578 10.2001 13.9096 10.1785C13.9614 10.1568 14.0083 10.1251 14.0479 10.0853C14.0874 10.0455 14.1187 9.99823 14.1399 9.9463C14.1612 9.89437 14.172 9.83876 14.1718 9.78264C14.1678 8.83768 13.8182 7.88864 13.1217 7.14658C12.3913 6.36832 11.41 5.9566 10.4198 5.92466Z" fill="#5A5A5A"/>
</g>
<defs>
<clipPath id="clip0_656_21510">
<rect width="19" height="19" fill="white" transform="translate(0.495117 0.727173)"/>
</clipPath>
</defs>
</svg>
