<svg width="30" height="30" viewBox="0 0 30 30" fill="none" xmlns="http://www.w3.org/2000/svg">
<path d="M25 22.0615C24.8679 23.13 24.8098 23.5932 24.3164 24.6348L16.7373 26.2002C16.9115 25.0741 17.144 24.2056 17.5215 23.6846L25 22.0615ZM14.4434 14.6895L16.708 14.1982V7.04199C17.5518 6.09478 18.0704 5.66945 19.0889 5.13184V13.6816L25 12.3984C24.8678 13.4674 24.8101 13.9307 24.3164 14.9727L19.0889 16.0771V18.4805L25 17.2305C24.8679 18.299 24.8098 18.7622 24.3164 19.8037L19.0889 20.8828V20.9062L16.708 21.3984V16.5811L14.4434 17.0596V20.0957L14.4043 20.1035C13.8834 21.0169 13.1482 22.1143 12.4395 22.9902L5 24.4062C5.06669 23.4492 5.20595 22.9102 5.63867 21.9463L12.0615 20.5537V17.5635L6.1084 18.8223C6.1751 17.8651 6.31521 17.3255 6.74805 16.3613L12.0615 15.207V5.70996C12.9054 4.76275 13.4248 4.33748 14.4434 3.7998V14.6895Z" fill="white"/>
</svg>
