<svg width="16" height="19" viewBox="0 0 16 19" fill="none" xmlns="http://www.w3.org/2000/svg">
<path d="M8.23276 0C8.47861 0.0510262 8.7291 0.0927749 8.97496 0.14844C10.6588 0.542733 12.0968 2.14774 12.3241 3.86871C12.4726 5.00057 12.3102 6.06748 11.6701 7.02306C10.8212 8.29408 9.64758 9.03164 8.0936 9.13833C6.05719 9.27749 4.37796 8.07606 3.61721 6.44786C2.90284 4.91707 3.19044 2.88066 4.31302 1.61428C4.99955 0.839613 5.82989 0.301518 6.85505 0.0927749C7.03132 0.055665 7.2076 0.0278325 7.37923 0C7.66683 0 7.9498 0 8.23276 0Z" fill="#5A5A5A"/>
<path d="M7.91408 19C6.41113 19 4.90817 19 3.40522 19C2.63519 19 1.9069 18.8469 1.26676 18.3923C0.543112 17.8728 0.116347 17.163 0.0421271 16.2817C-0.0923965 14.7091 0.0885145 13.1691 0.682274 11.6986C1.03482 10.8219 1.559 10.0704 2.42644 9.60652C2.96918 9.31892 3.54902 9.17512 4.15206 9.18903C4.34224 9.19367 4.54635 9.28645 4.72262 9.38386C5.01022 9.54158 5.27463 9.7364 5.55296 9.90804C7.13941 10.8822 8.72122 10.8775 10.303 9.89876C10.5257 9.76424 10.7484 9.62971 10.9571 9.47663C11.3375 9.19367 11.755 9.15192 12.2049 9.21686C13.4388 9.39778 14.3109 10.0704 14.8954 11.1466C15.4196 12.1068 15.6561 13.1505 15.7628 14.2267C15.8185 14.7741 15.8417 15.3261 15.8371 15.8735C15.8185 17.5666 14.682 18.7959 12.9981 18.9675C12.794 18.9907 12.5899 19 12.3858 19C10.8968 19 9.40775 19 7.91408 19Z" fill="#5A5A5A"/>
</svg>
