<svg width="48" height="48" viewBox="0 0 48 48" fill="none" xmlns="http://www.w3.org/2000/svg">
<g clip-path="url(#clip0_1002_37883)">
<path d="M33.9375 0H14.0625C6.296 0 0 6.296 0 14.0625V33.9375C0 41.704 6.296 48 14.0625 48H33.9375C41.704 48 48 41.704 48 33.9375V14.0625C48 6.296 41.704 0 33.9375 0Z" fill="url(#paint0_linear_1002_37883)"/>
<path d="M48.0007 24.5832V33.9375C48.0007 41.7038 41.7045 48 33.9382 48H29.742L8.00977 26.2679L15.2463 21.9169L11.5095 18.1791L16.6385 13.05L25.7979 22.2085L26.8235 20.8332L30.9748 24.9844L35.5226 22.3641L31.3376 18.1791L36.4676 13.05L48.0007 24.5832Z" fill="url(#paint1_linear_1002_37883)"/>
<path d="M29.383 36H18.6168C17.2396 36 16.2609 34.6594 16.6809 33.3478L18.0524 29.0681C18.3252 28.2178 19.2937 27.8231 20.0887 28.23C20.9802 28.6856 22.2843 29.1244 23.9999 29.1244C25.7155 29.1244 27.0187 28.6856 27.9112 28.23C28.7062 27.8241 29.6755 28.2178 29.9474 29.0681L31.319 33.3478C31.739 34.6594 30.7612 36 29.383 36ZM23.9999 19.6622C21.7968 19.6622 20.0109 21.4481 20.0109 23.6512C20.0109 25.8544 21.7968 27.6403 23.9999 27.6403C26.203 27.6403 27.989 25.8544 27.989 23.6512C27.989 21.4481 26.203 19.6622 23.9999 19.6622ZM38.5584 26.8584C39.9355 26.8584 40.9143 25.5178 40.4943 24.2063L39.3702 20.6991C39.1012 19.8591 38.1496 19.4625 37.3565 19.8488C36.5634 20.235 35.4018 20.6044 33.9149 20.6044C32.428 20.6044 31.2805 20.2416 30.4743 19.8488C29.6812 19.4625 28.7296 19.8581 28.4605 20.6991L28.4577 20.7075C29.0184 21.5522 29.3446 22.5647 29.3446 23.6522C29.3446 24.855 28.9452 25.965 28.2721 26.8594H38.5593L38.5584 26.8584ZM33.914 12C31.9105 12 30.2868 13.6238 30.2868 15.6272C30.2868 17.6306 31.9105 19.2544 33.914 19.2544C35.9174 19.2544 37.5412 17.6306 37.5412 15.6272C37.5412 13.6238 35.9174 12 33.914 12ZM18.6562 23.6512C18.6562 22.5638 18.9824 21.5512 19.543 20.7066L19.5402 20.6981C19.2712 19.8572 18.3196 19.4616 17.5265 19.8478C16.7202 20.2406 15.5727 20.6034 14.0859 20.6034C12.599 20.6034 11.4505 20.2406 10.6443 19.8478C9.85117 19.4616 8.8996 19.8572 8.63054 20.6981L7.50648 24.2053C7.08648 25.5169 8.06523 26.8575 9.44242 26.8575H19.7296C19.0565 25.9631 18.6571 24.8531 18.6571 23.6503L18.6562 23.6512ZM14.0849 12C12.0815 12 10.4577 13.6238 10.4577 15.6272C10.4577 17.6306 12.0815 19.2544 14.0849 19.2544C16.0884 19.2544 17.7121 17.6306 17.7121 15.6272C17.7121 13.6238 16.0884 12 14.0849 12Z" fill="white"/>
</g>
<defs>
<linearGradient id="paint0_linear_1002_37883" x1="4.11844" y1="4.11844" x2="43.8816" y2="43.8816" gradientUnits="userSpaceOnUse">
<stop stop-color="#64B5F6"/>
<stop offset="1" stop-color="#1976D2"/>
</linearGradient>
<linearGradient id="paint1_linear_1002_37883" x1="16.1341" y1="13.5544" x2="45.1713" y2="42.5916" gradientUnits="userSpaceOnUse">
<stop stop-opacity="0.35"/>
<stop offset="1" stop-opacity="0"/>
</linearGradient>
<clipPath id="clip0_1002_37883">
<rect width="48" height="48" fill="white"/>
</clipPath>
</defs>
</svg>
