<svg width="48" height="48" viewBox="0 0 48 48" fill="none" xmlns="http://www.w3.org/2000/svg">
<path d="M37 2.5H7C5.80701 2.50159 4.66334 2.9762 3.81977 3.81977C2.9762 4.66334 2.50159 5.80701 2.5 7V31C2.50159 32.193 2.9762 33.3367 3.81977 34.1802C4.66334 35.0238 5.80701 35.4984 7 35.5C7.39766 35.5005 7.77889 35.6587 8.06008 35.9399C8.34127 36.2211 8.49947 36.6023 8.5 37V40.758C8.49044 41.6502 8.75053 42.5245 9.24622 43.2664C9.7419 44.0084 10.4501 44.5833 11.278 44.916C11.8326 45.1472 12.4271 45.2674 13.028 45.27C13.6156 45.2681 14.197 45.1496 14.7384 44.9213C15.2798 44.693 15.7705 44.3594 16.182 43.94L24.182 35.94C24.4634 35.6592 24.8444 35.501 25.242 35.5H37C38.193 35.4984 39.3367 35.0238 40.1802 34.1802C41.0238 33.3367 41.4984 32.193 41.5 31V7C41.4984 5.80701 41.0238 4.66334 40.1802 3.81977C39.3367 2.9762 38.193 2.50159 37 2.5Z" fill="#4294FF"/>
<path d="M20 15.5H12C11.6022 15.5 11.2206 15.342 10.9393 15.0607C10.658 14.7794 10.5 14.3978 10.5 14C10.5 13.6022 10.658 13.2206 10.9393 12.9393C11.2206 12.658 11.6022 12.5 12 12.5H20C20.3978 12.5 20.7794 12.658 21.0607 12.9393C21.342 13.2206 21.5 13.6022 21.5 14C21.5 14.3978 21.342 14.7794 21.0607 15.0607C20.7794 15.342 20.3978 15.5 20 15.5Z" fill="#FFD064"/>
<path d="M26 23.5H12C11.6022 23.5 11.2206 23.342 10.9393 23.0607C10.658 22.7794 10.5 22.3978 10.5 22C10.5 21.6022 10.658 21.2206 10.9393 20.9393C11.2206 20.658 11.6022 20.5 12 20.5H26C26.3978 20.5 26.7794 20.658 27.0607 20.9393C27.342 21.2206 27.5 21.6022 27.5 22C27.5 22.3978 27.342 22.7794 27.0607 23.0607C26.7794 23.342 26.3978 23.5 26 23.5Z" fill="#FFD064"/>
<path d="M36 45.5C41.2467 45.5 45.5 41.2467 45.5 36C45.5 30.7533 41.2467 26.5 36 26.5C30.7533 26.5 26.5 30.7533 26.5 36C26.5 41.2467 30.7533 45.5 36 45.5Z" fill="#FFD064"/>
<path d="M36 45.5C34.1211 45.5 32.2844 44.9428 30.7221 43.899C29.1598 42.8551 27.9422 41.3714 27.2231 39.6355C26.5041 37.8996 26.316 35.9895 26.6825 34.1466C27.0491 32.3038 27.9539 30.6111 29.2825 29.2825C30.6111 27.9539 32.3038 27.0491 34.1466 26.6825C35.9895 26.316 37.8996 26.5041 39.6355 27.2231C41.3714 27.9422 42.8551 29.1598 43.899 30.7221C44.9428 32.2844 45.5 34.1211 45.5 36C45.4968 38.5186 44.4949 40.9331 42.714 42.714C40.9331 44.4949 38.5186 45.4968 36 45.5ZM36 29.5C34.7144 29.5 33.4577 29.8812 32.3888 30.5955C31.3199 31.3097 30.4868 32.3248 29.9948 33.5126C29.5028 34.7003 29.3741 36.0072 29.6249 37.2681C29.8757 38.529 30.4948 39.6872 31.4038 40.5962C32.3129 41.5052 33.471 42.1243 34.7319 42.3751C35.9928 42.6259 37.2997 42.4972 38.4874 42.0052C39.6752 41.5133 40.6903 40.6801 41.4046 39.6112C42.1188 38.5423 42.5 37.2856 42.5 36C42.4979 34.2767 41.8124 32.6247 40.5939 31.4061C39.3753 30.1876 37.7233 29.5021 36 29.5Z" fill="#FFD064"/>
<path d="M36 40.5C35.6022 40.5 35.2206 40.342 34.9393 40.0607C34.658 39.7794 34.5 39.3978 34.5 39V33C34.5 32.6022 34.658 32.2206 34.9393 31.9393C35.2206 31.658 35.6022 31.5 36 31.5C36.3978 31.5 36.7794 31.658 37.0607 31.9393C37.342 32.2206 37.5 32.6022 37.5 33V39C37.5 39.3978 37.342 39.7794 37.0607 40.0607C36.7794 40.342 36.3978 40.5 36 40.5Z" fill="white"/>
<path d="M39 37.5H33C32.6022 37.5 32.2206 37.342 31.9393 37.0607C31.658 36.7794 31.5 36.3978 31.5 36C31.5 35.6022 31.658 35.2206 31.9393 34.9393C32.2206 34.658 32.6022 34.5 33 34.5H39C39.3978 34.5 39.7794 34.658 40.0607 34.9393C40.342 35.2206 40.5 35.6022 40.5 36C40.5 36.3978 40.342 36.7794 40.0607 37.0607C39.7794 37.342 39.3978 37.5 39 37.5Z" fill="white"/>
</svg>
