<svg width="38" height="39" viewBox="0 0 38 39" fill="none" xmlns="http://www.w3.org/2000/svg">
<path fill-rule="evenodd" clip-rule="evenodd" d="M19 23.3496C20.8887 23.3496 22.5988 24.1153 23.8367 25.3531C25.0746 26.591 25.8402 28.3011 25.8402 30.1898C25.8402 32.0786 25.0746 33.7886 23.8367 35.0265C22.5988 36.2644 20.8888 37.0301 19 37.0301C17.1113 37.0301 15.4012 36.2644 14.1634 35.0265C12.9255 33.7886 12.1599 32.0786 12.1599 30.1898C12.1599 28.3011 12.9255 26.591 14.1634 25.3531C15.4012 24.1153 17.1113 23.3496 19 23.3496Z" fill="#FD4755"/>
<path fill-rule="evenodd" clip-rule="evenodd" d="M19 23.3496C20.8887 23.3496 22.5988 24.1153 23.8367 25.3531C25.0746 26.591 25.8402 28.3011 25.8402 30.1898C25.8402 32.0786 25.0746 33.7886 23.8367 35.0265C22.5988 36.2644 20.8888 37.0301 19 37.0301C18.7785 37.0301 18.5594 37.0194 18.3433 36.9988C19.1356 36.6539 19.8499 36.1633 20.4523 35.5609C21.6902 34.323 22.4558 32.613 22.4558 30.7242C22.4558 28.8355 21.6902 27.1254 20.4523 25.8875C19.3597 24.7949 17.899 24.0702 16.2724 23.9152C17.108 23.5514 18.0305 23.3496 19 23.3496Z" fill="#E4404D"/>
<path fill-rule="evenodd" clip-rule="evenodd" d="M32.2455 29.743C30.3054 30.3723 28.1748 30.8668 25.9107 31.1991C23.717 31.5211 21.3963 31.6943 19 31.6943C16.6037 31.6943 14.283 31.5211 12.0893 31.1991C9.82515 30.8668 7.69456 30.3723 5.75448 29.743C5.24912 29.5791 4.81108 29.3134 4.45424 28.9596C4.0991 28.6075 3.8311 28.1742 3.66374 27.673C3.49511 27.1679 3.44821 26.6592 3.52035 26.1657C3.59278 25.6702 3.78286 25.196 4.08775 24.7622C5.26115 23.0926 6.14509 21.2923 6.73528 19.3924C7.32985 17.4783 7.62924 15.4506 7.62924 13.3408C7.62924 10.201 8.90202 7.35835 10.9597 5.30063C13.0175 3.24299 15.8602 1.97021 19 1.97021C22.1398 1.97021 24.9825 3.24299 27.0402 5.30071C29.0979 7.35842 30.3707 10.2011 30.3707 13.3409C30.3707 15.4506 30.6702 17.4783 31.2647 19.3924C31.8548 21.2923 32.7387 23.0926 33.9122 24.7622C34.217 25.1959 34.4071 25.6701 34.4796 26.1657C34.5517 26.6592 34.5048 27.1679 34.3363 27.673C34.1689 28.1742 33.9008 28.6076 33.5458 28.9596C33.1889 29.3134 32.7509 29.5791 32.2455 29.743Z" fill="#FFD266"/>
<path fill-rule="evenodd" clip-rule="evenodd" d="M28.0584 20.1049C28.6485 22.0048 29.5325 23.8051 30.7059 25.4747C31.0107 25.9084 31.2008 26.3826 31.2733 26.8783C31.3455 27.3717 31.2986 27.8804 31.13 28.3855C30.9627 28.8867 30.6947 29.3201 30.3395 29.6721C29.9827 30.0259 29.5447 30.2916 29.0394 30.4555C28.4666 30.6413 27.8772 30.8153 27.2727 30.9769C29.0322 30.6605 30.6994 30.2445 32.2456 29.743C32.751 29.5791 33.189 29.3134 33.5458 28.9596C33.9009 28.6076 34.1689 28.1742 34.3363 27.673C34.5049 27.1679 34.5517 26.6592 34.4796 26.1657C34.4071 25.6701 34.2171 25.1959 33.9122 24.7622C32.7387 23.0926 31.8548 21.2923 31.2647 19.3924C30.6701 17.4783 30.3707 15.4505 30.3707 13.3409C30.3707 10.2011 29.0979 7.3585 27.0402 5.30071C24.9825 3.24292 22.1398 1.97021 19 1.97021C17.5724 1.97021 16.2062 2.23332 14.9473 2.71374C15.2268 2.69318 15.5091 2.68271 15.7938 2.68271C18.9336 2.68271 21.7762 3.95549 23.8339 6.01321C25.8917 8.07092 27.1644 10.9136 27.1644 14.0534C27.1644 16.163 27.4639 18.1908 28.0584 20.1049Z" fill="#E6BD5C"/>
</svg>
