<svg width="38" height="30" viewBox="0 0 38 30" fill="none" xmlns="http://www.w3.org/2000/svg">
<path d="M16.9219 16.4922H21.0781V18.5703H16.9219V16.4922Z" fill="white"/>
<path d="M27.0654 18.5703H10.9344C8.62555 18.5703 6.75385 20.442 6.75385 22.7509V26.7344H31.246V22.7509C31.246 20.442 29.3743 18.5703 27.0654 18.5703Z" fill="#FF8354"/>
<path d="M8.60938 10.7773H6.90234V2.35352C6.90234 1.88211 7.28445 1.5 7.75586 1.5C8.22726 1.5 8.60938 1.88211 8.60938 2.35352V10.7773Z" fill="white"/>
<path d="M31.0977 10.7773H29.3906V2.35352C29.3906 1.88211 29.7727 1.5 30.2441 1.5C30.7155 1.5 31.0977 1.88211 31.0977 2.35352V10.7773Z" fill="white"/>
<path d="M30.2441 1.5C29.7727 1.5 29.3906 1.88211 29.3906 2.35352V3.83789C29.3906 3.36649 29.7727 2.98438 30.2441 2.98438C30.7155 2.98438 31.0977 3.36649 31.0977 3.83789V2.35352C31.0977 1.88211 30.7155 1.5 30.2441 1.5Z" fill="#6770E6"/>
<path d="M7.75586 1.5C7.28445 1.5 6.90234 1.88211 6.90234 2.35352V3.83789C6.90234 3.36649 7.28445 2.98438 7.75586 2.98438C8.22726 2.98438 8.60938 3.36649 8.60938 3.83789V2.35352C8.60938 1.88211 8.22726 1.5 7.75586 1.5Z" fill="#6770E6"/>
<path d="M36.33 26.7344H1.66986C0.768219 26.7344 0.0370483 27.4655 0.0370483 28.3672C0.0370483 29.2688 0.768219 30 1.66986 30H36.33C37.2317 30 37.9628 29.2688 37.9628 28.3672C37.9628 27.4655 37.2317 26.7344 36.33 26.7344Z" fill="white"/>
<path d="M36.33 28.5156H1.66986C1.03552 28.5156 0.48584 28.1535 0.215637 27.625C0.1017 27.8477 0.0370483 28.0999 0.0370483 28.3672C0.0370483 29.2688 0.768219 30 1.66986 30H36.33C37.2317 30 37.9628 29.2688 37.9628 28.3672C37.9628 28.0999 37.8982 27.8477 37.7842 27.625C37.514 28.1535 36.9644 28.5156 36.33 28.5156Z" fill="#EAEAEA"/>
<path d="M27.1626 16.4922H10.8373C9.60692 16.4922 8.60931 15.4946 8.60931 14.2642V8.70676C8.60931 5.54637 11.1713 2.98438 14.3317 2.98438H23.6682C26.8286 2.98438 29.3906 5.54637 29.3906 8.70676V14.2642C29.3906 15.4946 28.393 16.4922 27.1626 16.4922Z" fill="#FF8354"/>
<path d="M23.6682 2.98438H14.3317C11.1713 2.98438 8.60931 5.54637 8.60931 8.70676V10.1911C8.60931 7.03075 11.1713 4.46875 14.3317 4.46875H23.6682C26.8286 4.46875 29.3906 7.03075 29.3906 10.1911V8.70676C29.3906 5.54637 26.8286 2.98438 23.6682 2.98438Z" fill="#FFAC8C"/>
<path d="M29.3906 13.7374H30.5025C31.7329 13.7374 32.7305 12.7398 32.7305 11.5094V10.9363C32.7305 9.70557 31.7329 8.70825 30.5025 8.70825H29.3906V13.7374Z" fill="#E0734A"/>
<path d="M7.49748 13.7375H8.60931V8.70801H7.49748C6.26707 8.70801 5.26947 9.70561 5.26947 10.9363V11.5092C5.26947 12.7399 6.26707 13.7375 7.49748 13.7375Z" fill="#E0734A"/>
<path d="M20.4843 14.7109H17.5156C17.1877 14.7109 16.9218 14.4451 16.9218 14.1172C16.9218 13.7893 17.1877 13.5234 17.5156 13.5234H20.4843C20.8122 13.5234 21.0781 13.7893 21.0781 14.1172C21.0781 14.4451 20.8122 14.7109 20.4843 14.7109Z" fill="#E0734A"/>
<path d="M23.8613 12.3359H14.1386C12.4374 12.3359 11.0585 10.9571 11.0585 9.25586C11.0585 7.55463 12.4374 6.17578 14.1386 6.17578H23.8613C25.5625 6.17578 26.9413 7.55463 26.9413 9.25586C26.9413 10.9571 25.5625 12.3359 23.8613 12.3359Z" fill="white"/>
<path d="M15.5859 9.25586C15.5859 10.096 14.9046 10.7773 14.0644 10.7773C13.2242 10.7773 12.5429 10.096 12.5429 9.25586C12.5429 8.41568 13.2242 7.73438 14.0644 7.73438C14.9046 7.73438 15.5859 8.41568 15.5859 9.25586Z" fill="#69EBFC"/>
<path d="M25.457 9.25586C25.457 10.096 24.7757 10.7773 23.9355 10.7773C23.0953 10.7773 22.414 10.096 22.414 9.25586C22.414 8.41568 23.0953 7.73438 23.9355 7.73438C24.7757 7.73438 25.457 8.41568 25.457 9.25586Z" fill="#69EBFC"/>
</svg>
