<svg width="77" height="70" viewBox="0 0 77 70" fill="none" xmlns="http://www.w3.org/2000/svg">
<rect width="77" height="70" fill="#838383"/>
<g clip-path="url(#clip0_580_21046)">
<rect width="1440" height="4203" transform="translate(-1223 -11)" fill="white"/>
<rect width="1440" height="93" transform="translate(-1223 -11)" fill="#F5F7FA"/>
<g clip-path="url(#clip1_580_21046)">
<g filter="url(#filter0_d_580_21046)">
<path d="M5.14596 46.5981H5.63139V47.2068H5.15412C5.05214 47.2068 4.95016 47.1902 4.85226 47.159C4.77883 47.4436 4.62382 47.6638 4.38722 47.8238C4.17714 47.965 3.93034 48.0357 3.64888 48.0357C3.23075 48.0357 2.90849 47.8986 2.68005 47.6223C2.50668 47.4083 2.42102 47.1569 2.42102 46.8661C2.42102 46.6459 2.46997 46.4506 2.56583 46.2803L3.17568 46.1411C3.06758 46.326 3.01455 46.5379 3.01455 46.7747C3.01455 46.9783 3.07166 47.1362 3.18384 47.2525C3.29602 47.3688 3.45103 47.427 3.65092 47.427C3.8508 47.427 3.99765 47.3709 4.10983 47.2608C4.22201 47.1486 4.27912 46.9991 4.27912 46.8079V44.7409L4.90121 44.4065V46.3467C4.90121 46.4402 4.91956 46.5046 4.95628 46.542C4.99299 46.5794 5.05622 46.5981 5.148 46.5981H5.14596Z" fill="#D80529"/>
<path d="M7.78116 46.5981V47.2068H5.40295V46.5981H5.98629C5.92714 46.4568 5.89654 46.301 5.89654 46.1328C5.89654 45.8253 6.0026 45.5802 6.21677 45.3953C6.39013 45.2478 6.59206 45.173 6.82253 45.173C7.13256 45.173 7.38343 45.3101 7.5772 45.5864V46.1328C7.36508 45.8876 7.13664 45.763 6.89596 45.763H6.87964C6.63897 45.7692 6.51659 45.9001 6.51659 46.1535C6.51659 46.2927 6.56146 46.4008 6.64917 46.4797C6.73687 46.5586 6.86129 46.596 7.02038 46.596H7.7832L7.78116 46.5981Z" fill="#D80529"/>
<path d="M9.18444 47.2047C8.92336 47.2047 8.71736 47.1195 8.57051 46.9492C8.44201 46.7996 8.37878 46.6064 8.37878 46.3717V44.7388L8.99679 44.4044V46.3447C8.99679 46.4382 9.01515 46.5026 9.05186 46.5399C9.08857 46.5773 9.1518 46.596 9.24359 46.596H9.66171V47.2047H9.18444Z" fill="#D80529"/>
<path d="M11.5239 46.5981H12.1378V47.2068H11.1527C11.0079 47.2068 10.8855 47.1943 10.7856 47.1715C10.6836 47.1943 10.5612 47.2068 10.4184 47.2068H9.4292V46.5981H10.0472C9.96562 46.4382 9.92279 46.2803 9.92279 46.1245C9.92279 45.8316 10.0064 45.5968 10.1737 45.4202C10.3307 45.2561 10.5326 45.173 10.7835 45.173C11.067 45.173 11.2893 45.279 11.4484 45.4909C11.579 45.6612 11.6442 45.8731 11.6442 46.1245C11.6442 46.2803 11.6034 46.4382 11.5198 46.5981H11.5239ZM10.7835 44.93C10.6876 44.93 10.6101 44.9009 10.551 44.8406C10.4918 44.7804 10.4633 44.7014 10.4633 44.6038C10.4633 44.5062 10.4918 44.4272 10.551 44.3691C10.6101 44.3109 10.6876 44.2818 10.7835 44.2818C10.8794 44.2818 10.9528 44.3109 11.0099 44.3691C11.067 44.4272 11.0956 44.5062 11.0956 44.6038C11.0956 44.7014 11.067 44.7804 11.0099 44.8406C10.9528 44.9009 10.8773 44.93 10.7835 44.93ZM10.7876 46.5358C10.8651 46.4963 10.9263 46.4319 10.9752 46.3467C11.0242 46.2616 11.0487 46.1743 11.0487 46.085C11.0487 45.871 10.963 45.763 10.7896 45.763C10.6163 45.763 10.5245 45.8689 10.5245 46.0808C10.5245 46.1743 10.549 46.2637 10.5979 46.3488C10.6469 46.434 10.7101 46.4963 10.7896 46.5379L10.7876 46.5358Z" fill="#D80529"/>
<path d="M13.4432 46.5981H13.8572V47.2068H13.384C13.1841 47.2068 13.021 47.1569 12.8904 47.0593C12.7538 47.1569 12.5886 47.2068 12.3907 47.2068H11.9135V46.5981H12.3316C12.4234 46.5981 12.4866 46.5794 12.5233 46.542C12.56 46.5046 12.5784 46.4402 12.5784 46.3467V45.5864L13.1964 45.252V46.3467C13.1964 46.4402 13.2147 46.5046 13.2494 46.542C13.2841 46.5794 13.3494 46.5981 13.4432 46.5981ZM12.2663 44.9341C12.1704 44.9341 12.0929 44.903 12.0338 44.8427C11.9746 44.7825 11.9461 44.7014 11.9461 44.6038C11.9461 44.5062 11.9746 44.4314 12.0338 44.3711C12.0909 44.3109 12.1704 44.2818 12.2663 44.2818C12.3622 44.2818 12.4356 44.3109 12.4927 44.3691C12.5498 44.4272 12.5784 44.5062 12.5784 44.6038C12.5784 44.7014 12.5498 44.7866 12.4927 44.8448C12.4356 44.905 12.3601 44.9341 12.2663 44.9341ZM12.9781 44.9341C12.8823 44.9341 12.8048 44.903 12.7456 44.8427C12.6865 44.7825 12.6579 44.7014 12.6579 44.6038C12.6579 44.5062 12.6865 44.4314 12.7456 44.3711C12.8048 44.3109 12.8823 44.2818 12.9781 44.2818C13.074 44.2818 13.1474 44.3109 13.2045 44.3691C13.2616 44.4272 13.2902 44.5062 13.2902 44.6038C13.2902 44.7014 13.2616 44.7866 13.2045 44.8448C13.1474 44.905 13.072 44.9341 12.9781 44.9341Z" fill="#D80529"/>
<path d="M13.6308 47.2047V46.596H13.9082C14.0286 46.596 14.1101 46.5711 14.157 46.5192C14.204 46.4672 14.2284 46.38 14.2284 46.2512V44.7347L14.8464 44.4002V46.2553C14.8464 46.5503 14.7587 46.7851 14.5813 46.9596C14.4202 47.1216 14.204 47.2026 13.9368 47.2026H13.6288L13.6308 47.2047Z" fill="#D80529"/>
<path d="M15.6133 47.2047V44.7388L16.2313 44.4044V47.2047H15.6133Z" fill="#D80529"/>
<path d="M18.8543 47.2047C18.5748 47.2047 18.3586 47.1092 18.2016 46.918C18.067 46.7539 18.0017 46.5441 18.0017 46.2927C18.0017 46.0123 18.0874 45.7692 18.2607 45.5677C18.4137 45.3891 18.6197 45.2561 18.8747 45.173C19.1704 45.2707 19.3948 45.4285 19.5477 45.6425C19.6824 45.8336 19.7476 46.0497 19.7476 46.2948C19.7476 46.5877 19.6599 46.8183 19.4866 46.9845C19.3336 47.132 19.1357 47.2068 18.893 47.2068H18.8502L18.8543 47.2047ZM18.4994 44.7513C18.4035 44.7513 18.326 44.7201 18.2669 44.6599C18.2077 44.5997 18.1792 44.5186 18.1792 44.421C18.1792 44.3234 18.2098 44.2486 18.2689 44.1904C18.328 44.1322 18.4056 44.1032 18.4994 44.1032C18.5932 44.1032 18.6687 44.1322 18.7258 44.1904C18.7829 44.2486 18.8114 44.3254 18.8114 44.421C18.8114 44.5228 18.7829 44.6017 18.7258 44.662C18.6687 44.7222 18.5932 44.7513 18.4994 44.7513ZM18.8543 46.5981H18.9012C19.0623 46.5981 19.1439 46.4984 19.1439 46.299C19.1439 46.0642 19.0542 45.8876 18.8747 45.7692C18.7013 45.8876 18.6156 46.0621 18.6156 46.2907C18.6156 46.4963 18.6952 46.5981 18.8543 46.5981ZM19.2112 44.7513C19.1153 44.7513 19.0378 44.7201 18.9787 44.6599C18.9195 44.5997 18.891 44.5186 18.891 44.421C18.891 44.3234 18.9195 44.2486 18.9787 44.1904C19.0378 44.1322 19.1153 44.1032 19.2112 44.1032C19.3071 44.1032 19.3805 44.1322 19.4376 44.1904C19.4947 44.2486 19.5233 44.3254 19.5233 44.421C19.5233 44.5228 19.4947 44.6017 19.4376 44.662C19.3805 44.7222 19.305 44.7513 19.2112 44.7513Z" fill="#D80529"/>
<path d="M20.0557 47.2047L20.3677 46.596H21.0021C21.1163 46.596 21.1734 46.5316 21.1734 46.4008C21.1734 46.1141 21.0347 45.8918 20.7553 45.7318L21.0571 45.2021C21.5487 45.4909 21.7955 45.8939 21.7955 46.4091C21.7955 46.9243 21.5691 47.2047 21.1183 47.2047H20.0557Z" fill="#D80529"/>
<path d="M23.2803 47.2047C23.0192 47.2047 22.8132 47.1195 22.6663 46.9492C22.5378 46.7996 22.4746 46.6064 22.4746 46.3717V44.7388L23.0926 44.4044V46.3447C23.0926 46.4382 23.111 46.5026 23.1477 46.5399C23.1844 46.5773 23.2476 46.596 23.3394 46.596H23.7575V47.2047H23.2803Z" fill="#D80529"/>
<path d="M23.7494 48.2268C23.6536 48.2268 23.5761 48.1956 23.5169 48.1354C23.4598 48.0751 23.4292 47.9941 23.4292 47.8965C23.4292 47.7988 23.4578 47.7241 23.5169 47.6659C23.5761 47.6077 23.6536 47.5786 23.7494 47.5786C23.8453 47.5786 23.9187 47.6077 23.9758 47.6659C24.0329 47.7241 24.0615 47.8009 24.0615 47.8965C24.0615 47.9983 24.0329 48.0772 23.9758 48.1375C23.9187 48.1977 23.8432 48.2268 23.7494 48.2268ZM23.5271 47.2047V46.596H23.9452C24.037 46.596 24.1002 46.5773 24.1369 46.5399C24.1737 46.5025 24.192 46.4381 24.192 46.3447V45.5843L24.81 45.2499V46.3696C24.81 46.6397 24.7284 46.8495 24.5632 47.0032C24.4205 47.1362 24.2349 47.2026 24.0044 47.2026H23.5271V47.2047ZM24.4572 48.2268C24.3633 48.2268 24.2879 48.1956 24.2287 48.1354C24.1696 48.0751 24.141 47.9941 24.141 47.8965C24.141 47.7988 24.1696 47.7241 24.2287 47.6659C24.2858 47.6077 24.3633 47.5786 24.4572 47.5786C24.551 47.5786 24.6265 47.6077 24.6856 47.6659C24.7448 47.7241 24.7733 47.8009 24.7733 47.8965C24.7733 47.9983 24.7448 48.0772 24.6876 48.1375C24.6305 48.1977 24.553 48.2268 24.4572 48.2268Z" fill="#D80529"/>
<path d="M26.6946 46.9139C26.6946 47.1632 26.6457 47.3792 26.5457 47.5641C26.4458 47.7469 26.3051 47.8819 26.1235 47.965C26.0032 48.0232 25.8747 48.0523 25.736 48.0523C25.5484 48.0523 25.3648 48.0024 25.1853 47.9006V47.3543C25.3322 47.4374 25.477 47.481 25.6157 47.481C25.687 47.481 25.7523 47.4685 25.8115 47.4457C25.9848 47.3854 26.0705 47.2234 26.0705 46.9596V45.5906L26.6926 45.252V46.916L26.6946 46.9139ZM26.3846 44.8614C26.2887 44.8614 26.2112 44.8323 26.1521 44.7721C26.0929 44.7118 26.0644 44.6329 26.0644 44.5353C26.0644 44.4376 26.0929 44.3587 26.1521 44.3005C26.2112 44.2423 26.2887 44.2133 26.3846 44.2133C26.4805 44.2133 26.5539 44.2423 26.611 44.3005C26.6681 44.3587 26.6967 44.4376 26.6967 44.5353C26.6967 44.6329 26.6681 44.7118 26.611 44.7721C26.5539 44.8323 26.4784 44.8614 26.3846 44.8614Z" fill="#D80529"/>
<path d="M29.599 46.5981H30.0171V47.2068H29.5399C29.4746 47.2068 29.4053 47.2006 29.3359 47.186C29.2706 47.5662 29.0871 47.8259 28.7852 47.9671C28.6649 48.0253 28.5364 48.0544 28.3977 48.0544C28.21 48.0544 28.0265 48.0045 27.847 47.9027V47.3564C27.9938 47.4395 28.1387 47.4831 28.2773 47.4831C28.3487 47.4831 28.414 47.4706 28.4732 47.4478C28.6465 47.3875 28.7322 47.2255 28.7322 46.9617V45.5885L29.3502 45.254V45.2582L29.3543 45.254V46.4215C29.3685 46.5399 29.4501 46.6002 29.597 46.6002L29.599 46.5981Z" fill="#5D5FED"/>
<path d="M32.5524 46.5981H32.9359V47.2068H32.5484C32.3301 47.2068 32.1527 47.1819 32.0181 47.132C31.8834 47.0821 31.759 46.997 31.6448 46.8765C31.2838 47.0967 30.8779 47.2068 30.4251 47.2068H29.7847V46.5981H30.4292C30.8922 46.5981 31.2634 46.4652 31.5428 46.1993C31.3633 45.9043 31.1533 45.7568 30.9126 45.7568C30.6943 45.7568 30.4414 45.8835 30.1538 46.1349V45.5885C30.3945 45.3143 30.6699 45.1751 30.9758 45.1751H30.984C31.2104 45.1751 31.4327 45.2582 31.6448 45.4244C31.8569 45.5906 32.0466 45.8274 32.2118 46.1349V46.3654C32.1629 46.4257 32.116 46.4818 32.0711 46.5358C32.171 46.5794 32.3301 46.6002 32.5524 46.6002V46.5981ZM31.1369 47.5786C31.2308 47.5786 31.3062 47.6077 31.3633 47.6659C31.4205 47.7241 31.449 47.8009 31.449 47.9006C31.449 48.0004 31.4205 48.0772 31.3633 48.1375C31.3062 48.1977 31.2308 48.2268 31.1369 48.2268C31.0431 48.2268 30.9636 48.1977 30.9044 48.1375C30.8453 48.0772 30.8167 47.9983 30.8167 47.9006C30.8167 47.803 30.8453 47.7241 30.9044 47.6659C30.9636 47.6077 31.0411 47.5786 31.1369 47.5786Z" fill="#5D5FED"/>
<path d="M34.2413 46.5981H34.6553V47.2068H34.1821C33.9822 47.2068 33.8191 47.1569 33.6885 47.0593C33.5519 47.1569 33.3867 47.2068 33.1888 47.2068H32.7115V46.5981H33.1297C33.2215 46.5981 33.2847 46.5794 33.3214 46.542C33.3581 46.5046 33.3765 46.4402 33.3765 46.3467V45.5864L33.9945 45.252V46.3467C33.9945 46.4402 34.0128 46.5046 34.0475 46.542C34.0822 46.5794 34.1474 46.5981 34.2413 46.5981ZM33.0644 44.9341C32.9685 44.9341 32.891 44.903 32.8319 44.8427C32.7727 44.7825 32.7442 44.7014 32.7442 44.6038C32.7442 44.5062 32.7727 44.4314 32.8319 44.3711C32.889 44.3109 32.9685 44.2818 33.0644 44.2818C33.1603 44.2818 33.2337 44.3109 33.2908 44.3691C33.3479 44.4272 33.3765 44.5062 33.3765 44.6038C33.3765 44.7014 33.3479 44.7866 33.2908 44.8448C33.2337 44.905 33.1582 44.9341 33.0644 44.9341ZM33.7762 44.9341C33.6804 44.9341 33.6029 44.903 33.5437 44.8427C33.4846 44.7825 33.456 44.7014 33.456 44.6038C33.456 44.5062 33.4846 44.4314 33.5437 44.3711C33.6029 44.3109 33.6804 44.2818 33.7762 44.2818C33.8721 44.2818 33.9455 44.3109 34.0026 44.3691C34.0597 44.4272 34.0883 44.5062 34.0883 44.6038C34.0883 44.7014 34.0597 44.7866 34.0026 44.8448C33.9455 44.905 33.8701 44.9341 33.7762 44.9341Z" fill="#5D5FED"/>
<path d="M35.0938 45.9936C35.0938 45.7277 35.1754 45.5179 35.3365 45.3683C35.4793 45.2374 35.6629 45.173 35.8913 45.173C36.1789 45.173 36.4012 45.281 36.5603 45.495C36.697 45.6778 36.7643 45.9084 36.7643 46.1889C36.7643 46.5109 36.6786 46.7643 36.5052 46.9533C36.3543 47.1216 36.1605 47.2047 35.9219 47.2047C35.6975 47.2047 35.516 47.1611 35.3753 47.0738C35.2468 47.1611 35.0918 47.2047 34.9062 47.2047H34.4289V46.596H34.847C34.9388 46.596 35.002 46.5773 35.0387 46.5399C35.0755 46.5025 35.0938 46.4381 35.0938 46.3447V45.9936ZM35.7139 46.4278C35.7139 46.5399 35.773 46.5981 35.8933 46.5981C36.0688 46.5981 36.1585 46.4548 36.1585 46.1681C36.1585 45.898 36.0708 45.7651 35.8933 45.7651C35.773 45.7651 35.7139 45.8357 35.7139 45.977V46.4278Z" fill="#5D5FED"/>
</g>
<g filter="url(#filter1_d_580_21046)">
<path fill-rule="evenodd" clip-rule="evenodd" d="M51.3986 2.57389C48.3065 2.02546 47.0807 5.56327 46.1567 7.83594C45.1879 10.2187 42.9933 15.8755 40.4947 20.7096L40.5009 20.7137C39.2954 23.0342 38.1777 24.8519 37.1273 26.2001C37.1334 26.2001 37.1396 26.2001 37.1477 26.2001C36.546 26.9792 35.9525 27.6169 35.3732 28.0656C35.3692 28.0698 35.3651 28.074 35.361 28.076C35.2203 28.1841 35.0816 28.2817 34.9429 28.3648C34.7797 28.4645 34.6206 28.5476 34.4615 28.6141C33.6661 28.9423 32.632 27.7623 31.8039 26.5284C29.0361 26.5429 26.6701 26.7839 24.7345 27.2451C24.7203 27.2492 24.706 27.2513 24.6917 27.2555C24.9018 27.6647 25.0915 28.0199 25.2506 28.2983C28.2407 33.5167 32.8869 37.9063 38.8365 33.6497C40.2255 32.6567 41.5146 31.2835 42.7139 29.6694C40.7354 38.7248 38.5041 47.9484 36.0076 56.5966C35.4732 58.4476 33.9027 63.907 32.838 65.4235C32.4423 63.9236 32.8176 59.667 32.9318 58.1921C32.6544 59.6525 31.4898 65.2448 32.2587 66.2378C33.6028 67.9787 36.5175 60.5395 36.7989 59.8935C40.9781 50.2938 44.7616 39.4623 48.1393 29.4513L48.1597 29.3889L50.9784 20.828L51.0192 20.8425C51.2925 19.9513 51.5434 19.083 51.7535 18.2624C52.553 15.1463 53.583 11.2221 54.0277 8.11639C54.3703 5.71492 54.1297 3.06208 51.3965 2.57597L51.3986 2.57389Z" fill="#D80529"/>
<path fill-rule="evenodd" clip-rule="evenodd" d="M32.9256 65.6784C32.9256 65.6784 32.9236 65.6706 32.9216 65.6686C32.9236 65.6725 32.9275 65.6745 32.9295 65.6784H32.9256Z" fill="#FDD302"/>
<path fill-rule="evenodd" clip-rule="evenodd" d="M49.926 25.6704L48.951 28.6286C57.9234 31.3562 66.5979 35.7853 73.5551 39.8694C66.7223 34.7382 58.5781 29.4056 49.926 25.6704Z" fill="#FF0408"/>
<path fill-rule="evenodd" clip-rule="evenodd" d="M19.2928 22.3196C14.0122 23.8319 10.3858 26.2708 8.10753 28.2796C6.03526 30.1804 4.31586 32.3305 3.30012 34.5388C2.28439 36.7471 1.73165 39.6326 4.27303 41.0286C5.2908 41.5874 6.27186 41.5729 7.19173 41.1844C6.845 40.5425 7.21621 39.1423 8.16056 37.5739C8.99884 36.18 10.6367 34.0486 13.6757 31.805C16.986 29.3619 20.5635 27.7042 24.6183 26.734C26.7436 26.2251 29.3706 25.982 32.4648 26.0049H32.479C33.8109 25.9841 35.1591 26.034 36.5155 26.1441C37.3578 25.1074 38.2491 23.7447 39.2037 22.0391C31.9997 20.5018 25.3036 20.5953 19.2949 22.3175L19.2928 22.3196Z" fill="#FF0408"/>
<path fill-rule="evenodd" clip-rule="evenodd" d="M8.59909 37.846C7.5548 39.5827 7.46506 40.6734 7.65474 40.9517C7.65474 40.9517 7.65474 40.9517 7.65678 40.9538C10.343 39.4311 12.4866 34.8691 13.588 32.5217C10.8672 34.6032 9.37823 36.5539 8.59909 37.846Z" fill="#D80529"/>
<path fill-rule="evenodd" clip-rule="evenodd" d="M21.6425 11.1993C16.9371 9.45424 14.0755 14.5439 12.5254 18.1523C11.6973 20.0822 10.4103 23.5265 8.98254 26.8794C11.0854 25.2425 14.0143 23.4808 17.8978 22.2011C18.0099 21.9186 18.1262 21.6361 18.2425 21.3494C18.5994 20.4811 19.2072 19.0664 19.868 18.0817C20.3922 18.8337 21.0184 19.9555 21.6649 21.1957C23.8943 20.7345 26.2072 20.4811 28.5956 20.4354C26.7905 16.6607 24.5306 12.267 21.6425 11.1951V11.1993Z" fill="#5D5FED"/>
<path style="mix-blend-mode:multiply" fill-rule="evenodd" clip-rule="evenodd" d="M37.3007 34.5783C32.0854 37.1293 27.9796 33.0597 25.2526 28.3004C25.0915 28.0199 24.9038 27.6647 24.6917 27.2575C24.706 27.2534 24.7203 27.2513 24.7345 27.2472C26.6701 26.7839 29.0361 26.545 31.8039 26.5304C32.632 27.7644 33.664 28.9444 34.4615 28.6162C34.6206 28.5497 34.7797 28.4687 34.9429 28.3669C35.0816 28.2817 35.2203 28.1861 35.361 28.0781C35.3651 28.076 35.3692 28.0719 35.3732 28.0677C35.4201 28.0324 35.4671 27.9929 35.514 27.9555L37.3007 34.5804V34.5783Z" fill="url(#paint0_linear_580_21046)"/>
<path style="mix-blend-mode:multiply" fill-rule="evenodd" clip-rule="evenodd" d="M28.5956 20.4374C26.2072 20.4811 23.8942 20.7345 21.6649 21.1978C21.0184 19.9555 20.3922 18.8358 19.868 18.0837C19.8517 18.1087 19.8354 18.1336 19.817 18.1606L21.4079 11.1182C21.4854 11.1432 21.565 11.1702 21.6425 11.2013C24.5306 12.2733 26.7905 16.6649 28.5956 20.4416V20.4374Z" fill="url(#paint1_linear_580_21046)"/>
<path fill-rule="evenodd" clip-rule="evenodd" d="M49.926 25.6704L48.951 28.6286C57.9234 31.3562 66.5979 35.7853 73.5551 39.8694C66.7223 34.7382 58.5781 29.4056 49.926 25.6704Z" fill="#5D5FED"/>
<path fill-rule="evenodd" clip-rule="evenodd" d="M19.2928 22.3196C14.0122 23.8319 10.3858 26.2708 8.10753 28.2796C6.03526 30.1804 4.31586 32.3305 3.30012 34.5388C2.28439 36.7471 1.73165 39.6326 4.27303 41.0286C5.2908 41.5874 6.27186 41.5729 7.19173 41.1844C6.845 40.5425 7.21621 39.1423 8.16056 37.5739C8.99884 36.18 10.6367 34.0486 13.6757 31.805C16.986 29.3619 20.5635 27.7042 24.6183 26.734C26.7436 26.2251 29.3706 25.982 32.4648 26.0049H32.479C33.8109 25.9841 35.1591 26.034 36.5155 26.1441C37.3578 25.1074 38.2491 23.7447 39.2037 22.0391C31.9997 20.5018 25.3036 20.5953 19.2949 22.3175L19.2928 22.3196Z" fill="#5D5FED"/>
<path d="M48.9327 48.6443C49.3427 48.3244 49.7792 48.0024 50.2421 47.6763C50.3278 47.2733 50.442 46.8806 50.5889 46.4984C50.9377 45.5947 51.419 44.8012 52.037 44.1135C52.655 43.428 53.3954 42.89 54.2602 42.5015C55.125 42.113 56.0836 41.9177 57.1402 41.9177C58.0152 41.9177 58.8351 42.0631 59.5979 42.3498C61.3275 41.5126 63.1979 40.6609 65.2089 39.7946C64.3237 39.0862 63.3284 38.4942 62.227 38.0247C60.6993 37.3724 59.0268 37.0462 57.2075 37.0462C55.3881 37.0462 53.7095 37.3724 52.1716 38.0247C50.6338 38.677 49.308 39.5682 48.1964 40.7004C47.0848 41.8326 46.2139 43.1476 45.5857 44.6454C44.9575 46.1432 44.6434 47.7511 44.6434 49.4649V49.5335C44.6434 50.6407 44.7719 51.7023 45.0289 52.7181C45.0697 52.6496 45.1125 52.5831 45.1553 52.5145C45.9487 51.2806 47.2174 49.978 48.9286 48.6443H48.9327Z" fill="#5D5FED"/>
<path d="M48.3718 56.6257C48.5166 55.3834 49.2713 53.9687 50.6032 52.4107C50.5991 52.4003 50.595 52.392 50.5909 52.3816C50.5012 52.1448 50.4217 51.9038 50.3543 51.6587C48.4759 53.7693 47.3622 55.8986 47.7395 57.8181C47.8762 57.9698 48.019 58.1194 48.1658 58.2669C48.4412 58.5411 48.7288 58.8028 49.0286 59.048C48.482 58.3167 48.2658 57.5169 48.3718 56.6257Z" fill="#5D5FED"/>
<path d="M61.2256 43.2223C61.4255 43.3657 61.6152 43.5173 61.7987 43.6794C61.8354 43.7126 61.8742 43.7458 61.9109 43.7812C63.5752 42.1961 65.9861 40.4698 65.9861 40.4698C64.7174 41.1616 63.0449 42.1047 61.2276 43.2223H61.2256Z" fill="#5D5FED"/>
<path d="M68.7783 44.5768C68.2174 43.2182 67.4546 42.0195 66.4878 40.9808C66.3878 40.8749 66.2879 40.7689 66.1859 40.6651C66.1186 40.5986 66.0513 40.5342 65.984 40.4698C65.984 40.4698 63.5752 42.1961 61.9088 43.7812C62.0353 43.8996 62.1597 44.0201 62.278 44.1489C62.9184 44.8344 63.412 45.6363 63.7608 46.5503C64.1096 47.4644 64.2829 48.4366 64.2829 49.467V49.5356C64.2829 50.5639 64.1096 51.5319 63.7608 52.4335C63.412 53.3372 62.9307 54.1308 62.3127 54.8184C61.6946 55.5039 60.9481 56.042 60.0731 56.4304C59.1981 56.8189 58.2436 57.0142 57.2095 57.0142C56.1754 57.0142 55.1944 56.8148 54.3296 56.4138C53.4648 56.015 52.7121 55.4707 52.0737 54.7851C51.4414 54.1058 50.9499 53.3143 50.6032 52.4128C49.2733 53.9687 48.5187 55.3855 48.3718 56.6278C48.2678 57.519 48.484 58.3188 49.0286 59.05C49.9423 59.8 50.9744 60.419 52.1227 60.9093C53.6504 61.5616 55.3229 61.8878 57.1422 61.8878C58.9615 61.8878 60.6402 61.5616 62.178 60.9093C63.7159 60.257 65.0417 59.3658 66.1533 58.2336C67.2649 57.1014 68.1358 55.7864 68.764 54.2886C69.3922 52.7908 69.7063 51.1829 69.7063 49.4691V49.4005C69.7063 47.6846 69.3983 46.0788 68.7803 44.581L68.7783 44.5768Z" fill="#5D5FED"/>
<path d="M65.7943 40.2953C63.8342 41.1346 62.0455 41.9427 60.4138 42.7238C55.8246 44.9175 52.4837 46.8786 50.1014 48.6236C47.4621 50.5556 45.9956 52.2216 45.3042 53.6426C45.0635 54.1391 44.9146 54.6044 44.8453 55.0407H45.2838C45.5326 55.0407 45.7346 55.2463 45.7346 55.4998V56.9373C45.7346 57.1908 45.5326 57.3964 45.2838 57.3964H45.2593C46.428 59.4925 49.3998 60.417 49.3998 60.417C48.4473 59.6151 47.921 58.7405 47.7395 57.8181C47.3622 55.8986 48.4758 53.7693 50.3543 51.6587C53.0976 48.5758 57.4726 45.5303 61.2255 43.2223C63.0428 42.1047 64.7153 41.1595 65.984 40.4698C67.4484 39.6721 68.3785 39.213 68.3785 39.213C67.4872 39.5786 66.6265 39.9401 65.7963 40.2953H65.7943Z" fill="#D80529"/>
<path d="M45.0982 55.3502H44.058C43.8744 55.3502 43.7255 55.5018 43.7255 55.6888V56.7483C43.7255 56.9353 43.8744 57.0869 44.058 57.0869H45.0982C45.2818 57.0869 45.4307 56.9353 45.4307 56.7483V55.6888C45.4307 55.5018 45.2818 55.3502 45.0982 55.3502Z" fill="#5D5FED"/>
</g>
</g>
</g>
<defs>
<filter id="filter0_d_580_21046" x="2.42102" y="44.1032" width="38.3433" height="8.12363" filterUnits="userSpaceOnUse" color-interpolation-filters="sRGB">
<feFlood flood-opacity="0" result="BackgroundImageFix"/>
<feColorMatrix in="SourceAlpha" type="matrix" values="0 0 0 0 0 0 0 0 0 0 0 0 0 0 0 0 0 0 127 0" result="hardAlpha"/>
<feOffset dx="2" dy="2"/>
<feGaussianBlur stdDeviation="1"/>
<feColorMatrix type="matrix" values="0 0 0 0 0 0 0 0 0 0 0 0 0 0 0 0 0 0 0.31 0"/>
<feBlend mode="normal" in2="BackgroundImageFix" result="effect1_dropShadow_580_21046"/>
<feBlend mode="normal" in="SourceGraphic" in2="effect1_dropShadow_580_21046" result="shape"/>
</filter>
<filter id="filter1_d_580_21046" x="-4.75206" y="-4.68305" width="90.3071" height="83.1841" filterUnits="userSpaceOnUse" color-interpolation-filters="sRGB">
<feFlood flood-opacity="0" result="BackgroundImageFix"/>
<feColorMatrix in="SourceAlpha" type="matrix" values="0 0 0 0 0 0 0 0 0 0 0 0 0 0 0 0 0 0 127 0" result="hardAlpha"/>
<feOffset dx="2.4" dy="2.4"/>
<feGaussianBlur stdDeviation="4.8"/>
<feColorMatrix type="matrix" values="0 0 0 0 0 0 0 0 0 0 0 0 0 0 0 0 0 0 0.45 0"/>
<feBlend mode="normal" in2="BackgroundImageFix" result="effect1_dropShadow_580_21046"/>
<feBlend mode="normal" in="SourceGraphic" in2="effect1_dropShadow_580_21046" result="shape"/>
</filter>
<linearGradient id="paint0_linear_580_21046" x1="26.2663" y1="24.7314" x2="35.2005" y2="33.112" gradientUnits="userSpaceOnUse">
<stop offset="0.74" stop-color="white"/>
</linearGradient>
<linearGradient id="paint1_linear_580_21046" x1="26.9945" y1="22.681" x2="21.5586" y2="15.4535" gradientUnits="userSpaceOnUse">
<stop offset="0.74" stop-color="white"/>
</linearGradient>
<clipPath id="clip0_580_21046">
<rect width="1440" height="4203" fill="white" transform="translate(-1223 -11)"/>
</clipPath>
<clipPath id="clip1_580_21046">
<rect width="77" height="70" fill="white"/>
</clipPath>
</defs>
</svg>
