<svg width="119" height="123" viewBox="0 0 119 123" fill="none" xmlns="http://www.w3.org/2000/svg">
<path d="M104.36 45.3347C106.472 45.3347 108.184 43.6209 108.184 41.5067C108.184 39.3926 106.472 37.6787 104.36 37.6787C102.247 37.6787 100.535 39.3926 100.535 41.5067C100.535 43.6209 102.247 45.3347 104.36 45.3347Z" fill="#EAEEF9"/>
<path d="M2.76618 66.0359C4.15582 66.0359 5.28235 64.9083 5.28235 63.5175C5.28235 62.1266 4.15582 60.999 2.76618 60.999C1.37653 60.999 0.25 62.1266 0.25 63.5175C0.25 64.9083 1.37653 66.0359 2.76618 66.0359Z" fill="#EAEEF9"/>
<path d="M14.3325 111.312C15.7222 111.312 16.8487 110.185 16.8487 108.794C16.8487 107.403 15.7222 106.275 14.3325 106.275C12.9429 106.275 11.8163 107.403 11.8163 108.794C11.8163 110.185 12.9429 111.312 14.3325 111.312Z" fill="#EAEEF9"/>
<path d="M27.7825 111.312L63.0915 100.248V54.8867L27.7825 65.8654V111.312Z" fill="#B7BFCD"/>
<path opacity="0.4" d="M98.4004 111.312L63.0914 100.248V54.8867L98.4004 65.8654V111.312Z" fill="#6D7C9A"/>
<g opacity="0.13">
<path d="M27.7825 111.312L63.0915 100.248V54.8867L27.7825 65.8654V111.312Z" fill="url(#paint0_linear_741_1856)"/>
<path d="M98.4004 111.312L63.0915 100.248V54.8867L98.4004 65.8654V111.312Z" fill="url(#paint1_linear_741_1856)"/>
</g>
<path d="M63.0915 122.462L27.7825 111.398V66.0361L63.0915 77.1V122.462Z" fill="#EDF1F9"/>
<path d="M63.0914 122.462L98.4004 111.398V66.0361L63.0914 77.1V122.462Z" fill="#DAE1ED"/>
<path opacity="0.09" d="M55.0915 114.462L27.7825 111.398V66.0361L63.0915 77.1L55.0915 114.462Z" fill="url(#paint2_linear_741_1856)"/>
<path opacity="0.2" d="M71.0914 106.462L98.4004 111.398V66.0361L63.0914 77.1L71.0914 106.462Z" fill="url(#paint3_linear_741_1856)"/>
<path d="M63.0914 54.887L46.4903 42.4614L10.5914 54.5465L27.7824 65.8657L63.0914 54.887Z" fill="#DAE1ED"/>
<path d="M63.0914 54.887L79.6926 42.4614L115.591 54.5465L98.4004 65.8657L63.0914 54.887Z" fill="#DAE1ED"/>
<path d="M27.7824 66.0361L63.0914 77.1L45.4791 88.334L10.5914 76.7595L27.7824 66.0361Z" fill="#EFF4FD"/>
<path d="M98.4004 66.0361L63.0914 77.1L80.7038 88.334L115.591 76.7595L98.4004 66.0361Z" fill="#EDF1F9"/>
<path d="M72.9429 11.338C77.8895 24.7624 79.3639 27.7452 79.8478 40.9731C79.6617 43.9926 79.5463 47.276 78.1228 49.9199C76.2217 53.9643 71.5716 56.7653 67.1783 56.8107C62.6524 56.8916 58.2153 54.1204 56.2181 49.8473C54.813 47.254 54.8577 43.7067 56.7851 41.3522C58.8804 39.094 62.5666 38.531 65.2183 39.942C68.1352 41.2819 69.8762 44.0681 70.5211 47.0064C71.166 49.9448 70.8826 53.1317 70.0955 56.0294C68.4492 63.0768 67.0857 63.4178 63.0484 75.3495" stroke="#ABB5CC" stroke-width="2" stroke-miterlimit="10" stroke-dasharray="4 4"/>
<path d="M78.9632 4.23251C78.9517 6.20649 77.1147 7.41518 74.7852 6.78489C72.3324 6.36678 70.5965 5.93586 70.4847 4.17406C70.541 2.36726 72.5123 1.66011 74.8196 0.862967C77.5862 -0.236354 78.8066 2.30354 78.9632 4.23251Z" fill="#DAE2EB"/>
<path d="M63.1141 10.2689C64.3571 11.5485 66.9779 11.9216 68.255 9.96704C69.6553 7.80026 70.854 6.22502 69.5662 4.7782C68.3231 3.49857 67.1134 4.36009 64.3468 5.45941C62.129 6.59092 61.6583 8.86706 63.1141 10.2689Z" fill="#DAE2EB"/>
<path d="M68.8498 2.10331C69.9811 1.62115 71.3362 1.97488 71.9409 2.88797C72.1985 3.17733 72.5008 3.63388 72.5903 3.96824C73.5532 6.21876 73.2505 8.44992 71.9512 8.97708C70.5287 9.71641 68.5689 8.44959 67.8188 6.32124C67.6397 5.65252 67.5501 5.31816 67.4158 4.81662C67.2704 3.60136 67.7185 2.58547 68.8498 2.10331C69.0178 2.05831 68.8498 2.10331 68.8498 2.10331Z" fill="#989FB0"/>
<path d="M16.8487 38.3316H14.6587V36.1416H12.7815V38.3316H10.5914V40.2714H12.7815V42.4614H14.6587V40.2714H16.8487V38.3316Z" fill="url(#paint4_linear_741_1856)"/>
<path d="M21.6594 93.2784H19.4693V91.0884H17.5921V93.2784H15.4021V95.2182H17.5921V97.4082H19.4693V95.2182H21.6594V93.2784Z" fill="url(#paint5_linear_741_1856)"/>
<path d="M117.397 93.4028L114.718 92.0499L116.07 89.3704L113.774 88.2108L112.421 90.8903L109.741 89.5375L108.543 91.9108L111.223 93.2636L109.87 95.9432L112.166 97.1028L113.519 94.4232L116.199 95.7761L117.397 93.4028Z" fill="url(#paint6_linear_741_1856)"/>
<defs>
<linearGradient id="paint0_linear_741_1856" x1="51.9452" y1="58.172" x2="47.1292" y2="78.2218" gradientUnits="userSpaceOnUse">
<stop offset="0.00289017" stop-color="#606673" stop-opacity="0"/>
<stop offset="1" stop-color="#373C47"/>
</linearGradient>
<linearGradient id="paint1_linear_741_1856" x1="51.9452" y1="58.172" x2="47.1292" y2="78.2218" gradientUnits="userSpaceOnUse">
<stop offset="0.00289017" stop-color="#606673" stop-opacity="0"/>
<stop offset="1" stop-color="#373C47"/>
</linearGradient>
<linearGradient id="paint2_linear_741_1856" x1="35.6985" y1="97.0814" x2="44.1811" y2="73.1233" gradientUnits="userSpaceOnUse">
<stop offset="0.00289017" stop-color="#6C80AA" stop-opacity="0"/>
<stop offset="1" stop-color="#5D6A86"/>
</linearGradient>
<linearGradient id="paint3_linear_741_1856" x1="82.1472" y1="103.626" x2="82.8143" y2="73.2233" gradientUnits="userSpaceOnUse">
<stop offset="0.00289017" stop-color="#314F91" stop-opacity="0"/>
<stop offset="1" stop-color="#324264"/>
</linearGradient>
<linearGradient id="paint4_linear_741_1856" x1="13.7206" y1="36.3611" x2="13.7206" y2="39.9084" gradientUnits="userSpaceOnUse">
<stop stop-color="#B0BACC"/>
<stop offset="1" stop-color="#969EAE"/>
</linearGradient>
<linearGradient id="paint5_linear_741_1856" x1="18.5312" y1="91.3079" x2="18.5312" y2="94.8552" gradientUnits="userSpaceOnUse">
<stop stop-color="#B0BACC"/>
<stop offset="1" stop-color="#969EAE"/>
</linearGradient>
<linearGradient id="paint6_linear_741_1856" x1="114.787" y1="89.0595" x2="112.596" y2="93.3996" gradientUnits="userSpaceOnUse">
<stop stop-color="#B0BACC"/>
<stop offset="1" stop-color="#969EAE"/>
</linearGradient>
</defs>
</svg>
