<svg width="133" height="120" viewBox="0 0 133 120" fill="none" xmlns="http://www.w3.org/2000/svg">
<path d="M70.325 118.621C98.325 118.621 121.025 95.921 121.025 67.821C121.025 39.721 98.225 17.021 70.325 17.021C42.325 17.021 19.625 39.721 19.625 67.821C19.625 95.921 42.325 118.621 70.325 118.621Z" fill="#F1F3F9" stroke="#D6DCE8" stroke-width="2" stroke-miterlimit="10"/>
<path d="M124.175 100.598C126.439 100.598 128.275 98.7623 128.275 96.4979C128.275 94.2336 126.439 92.3979 124.175 92.3979C121.91 92.3979 120.075 94.2336 120.075 96.4979C120.075 98.7623 121.91 100.598 124.175 100.598Z" fill="#EFF2F8"/>
<path d="M130.175 84.598C131.721 84.598 132.975 83.3444 132.975 81.798C132.975 80.2516 131.721 78.998 130.175 78.998C128.629 78.998 127.375 80.2516 127.375 81.798C127.375 83.3444 128.629 84.598 130.175 84.598Z" fill="#EFF2F8"/>
<path d="M22.3249 34.4208C23.8713 34.4208 25.1249 33.1672 25.1249 31.6208C25.1249 30.0744 23.8713 28.8208 22.3249 28.8208C20.7785 28.8208 19.5249 30.0744 19.5249 31.6208C19.5249 33.1672 20.7785 34.4208 22.3249 34.4208Z" fill="#EFF2F8"/>
<path d="M5.2249 88.421C8.09678 88.421 10.4249 86.0929 10.4249 83.221C10.4249 80.3491 8.09678 78.021 5.2249 78.021C2.35302 78.021 0.0249023 80.3491 0.0249023 83.221C0.0249023 86.0929 2.35302 88.421 5.2249 88.421Z" fill="#EFF2F8"/>
<path d="M76.6862 86.2388H65.419C62.8083 86.2388 60.6099 88.6471 60.6099 91.507V97.6783C60.6099 104 65.2816 109.118 71.0526 109.118C76.8236 109.118 81.4954 104 81.4954 97.6783V91.507C81.4954 88.4966 79.2969 86.2388 76.6862 86.2388Z" fill="white" stroke="#D6DCE8" stroke-width="2" stroke-miterlimit="10"/>
<path fill-rule="evenodd" clip-rule="evenodd" d="M75.6862 27.1048C86.7109 29.655 94.9228 39.5284 94.9228 51.3275V54.4869C94.9228 81.1352 114.984 98.5803 114.984 98.5803H24.9839C24.9839 98.5803 45.1824 81.1352 45.1824 54.4869V51.3275C45.1824 39.5284 53.3943 29.655 64.419 27.1048V26.0528C64.419 22.8934 66.8923 20.4209 70.0526 20.4209C73.2129 20.4209 75.6862 22.8934 75.6862 26.0528V27.1048Z" fill="white"/>
<path d="M75.6862 27.1048H74.6862V27.8999L75.4608 28.0791L75.6862 27.1048ZM114.984 98.5803V99.5803H117.658L115.64 97.8257L114.984 98.5803ZM24.9839 98.5803L24.3302 97.8235L22.2962 99.5803H24.9839V98.5803ZM64.419 27.1048L64.6444 28.0791L65.419 27.8999V27.1048H64.419ZM94.9228 51.3275H95.9228C95.9228 39.0527 87.3796 28.7833 75.9115 26.1306L75.6862 27.1048L75.4608 28.0791C86.0421 30.5267 93.9228 40.0042 93.9228 51.3275H94.9228ZM94.9228 54.4869H95.9228V51.3275H94.9228H93.9228V54.4869H94.9228ZM114.984 98.5803C115.64 97.8257 115.64 97.8258 115.64 97.826C115.64 97.8259 115.64 97.8259 115.64 97.8258C115.64 97.8256 115.64 97.8252 115.639 97.8244C115.637 97.823 115.634 97.8204 115.63 97.8169C115.622 97.8097 115.609 97.7983 115.592 97.7828C115.557 97.7517 115.503 97.7039 115.433 97.6397C115.293 97.5112 115.084 97.3169 114.816 97.0588C114.281 96.5427 113.512 95.7718 112.587 94.7624C110.735 92.7427 108.263 89.7724 105.791 85.9805C100.843 78.3913 95.9228 67.5566 95.9228 54.4869H94.9228H93.9228C93.9228 68.0654 99.0332 79.2775 104.116 87.0728C106.659 90.9733 109.202 94.0297 111.112 96.1138C112.068 97.1562 112.866 97.9564 113.428 98.4984C113.709 98.7694 113.931 98.976 114.084 99.116C114.161 99.1861 114.22 99.2395 114.261 99.276C114.282 99.2943 114.298 99.3084 114.309 99.3182C114.314 99.3231 114.319 99.3269 114.322 99.3297C114.323 99.3311 114.325 99.3322 114.326 99.3331C114.326 99.3335 114.327 99.334 114.327 99.3342C114.327 99.3345 114.328 99.3349 114.984 98.5803ZM24.9839 98.5803V99.5803H114.984V98.5803V97.5803H24.9839V98.5803ZM45.1824 54.4869H44.1824C44.1824 67.5548 39.2292 78.3886 34.2472 85.9779C31.758 89.7698 29.269 92.7401 27.405 94.7599C26.4734 95.7694 25.6989 96.5403 25.16 97.0565C24.8906 97.3145 24.6802 97.5089 24.5386 97.6374C24.4678 97.7016 24.4143 97.7494 24.3791 97.7805C24.3615 97.7961 24.3486 97.8075 24.3404 97.8146C24.3363 97.8182 24.3334 97.8207 24.3317 97.8222C24.3308 97.8229 24.3303 97.8234 24.3301 97.8236C24.3299 97.8237 24.33 97.8237 24.3299 97.8237C24.33 97.8236 24.3302 97.8235 24.9839 98.5803C25.6375 99.3371 25.6379 99.3368 25.6383 99.3364C25.6386 99.3362 25.6391 99.3357 25.6396 99.3353C25.6406 99.3344 25.6418 99.3333 25.6434 99.3319C25.6466 99.3292 25.6511 99.3253 25.6567 99.3204C25.6679 99.3106 25.6839 99.2965 25.7045 99.2783C25.7458 99.2417 25.8057 99.1883 25.8828 99.1183C26.0371 98.9783 26.2606 98.7718 26.5435 98.5008C27.1093 97.9588 27.9128 97.1587 28.8748 96.1163C30.798 94.0323 33.3586 90.9759 35.9191 87.0755C41.0363 79.2802 46.1824 68.0672 46.1824 54.4869H45.1824ZM45.1824 51.3275H44.1824V54.4869H45.1824H46.1824V51.3275H45.1824ZM64.419 27.1048L64.1936 26.1306C52.7256 28.7833 44.1824 39.0526 44.1824 51.3275H45.1824H46.1824C46.1824 40.0042 54.0631 30.5267 64.6444 28.0791L64.419 27.1048ZM64.419 27.1048H65.419V26.0528H64.419H63.419V27.1048H64.419ZM64.419 26.0528H65.419C65.419 23.446 67.4443 21.4209 70.0526 21.4209V20.4209V19.4209C66.3403 19.4209 63.419 22.3409 63.419 26.0528H64.419ZM70.0526 20.4209V21.4209C72.6609 21.4209 74.6862 23.446 74.6862 26.0528H75.6862H76.6862C76.6862 22.3409 73.7649 19.4209 70.0526 19.4209V20.4209ZM75.6862 26.0528H74.6862V27.1048H75.6862H76.6862V26.0528H75.6862Z" fill="#D6DCE8"/>
<path d="M59.6099 65.3381C56.1748 65.3381 53.2893 63.1403 52.1901 59.981C51.9153 59.2942 52.3275 58.6074 53.0145 58.3326C53.7015 58.0579 54.3886 58.47 54.6634 59.1568C55.3504 61.2172 57.4115 62.7282 59.6099 62.7282C61.8084 62.7282 63.8695 61.3546 64.5565 59.1568C64.8313 58.47 65.5183 58.0579 66.2053 58.3326C66.8924 58.6074 67.3046 59.2942 67.0298 59.981C65.9305 63.2777 63.045 65.3381 59.6099 65.3381Z" fill="#AAB2C5"/>
<path d="M80.358 65.3381C76.9229 65.3381 74.0374 63.1403 72.9381 59.981C72.6633 59.2942 73.0755 58.6074 73.7626 58.3326C74.4496 58.0579 75.1366 58.47 75.4114 59.1568C76.0984 61.2172 78.1595 62.7282 80.358 62.7282C82.5564 62.7282 84.6175 61.3546 85.3045 59.1568C85.5794 58.47 86.2664 58.0579 86.9534 58.3326C87.6404 58.6074 88.0526 59.2942 87.7778 59.981C86.6786 63.2777 83.7931 65.3381 80.358 65.3381Z" fill="#AAB2C5"/>
<path d="M70.0524 82.1571C71.7978 82.1571 73.2127 80.7426 73.2127 78.9977C73.2127 77.2529 71.7978 75.8384 70.0524 75.8384C68.307 75.8384 66.8921 77.2529 66.8921 78.9977C66.8921 80.7426 68.307 82.1571 70.0524 82.1571Z" fill="#AAB2C5"/>
<path d="M86.9868 4.64967V0H104.957V4.64967L92.6949 19.4441H105.168V24.0937H86.3525V19.4441L98.6145 4.64967H86.9868Z" fill="#AAB2C5"/>
<path d="M101.786 39.5224V36.5635H113.413V39.5224L105.591 49.0331H113.625V51.9919H101.363V49.0331L109.185 39.5224H101.786Z" fill="#AAB2C5"/>
</svg>
