<svg width="50" height="50" viewBox="0 0 50 50" fill="none" xmlns="http://www.w3.org/2000/svg">
<path d="M29.3949 11.6832V19.0331H8.02466V11.6832C8.02466 5.78196 12.8085 0.998077 18.7097 0.998077C24.611 0.998078 29.3949 5.78196 29.3949 11.6832Z" fill="#2D2C2C"/>
<path d="M36.5832 41.5691V44.9795C36.5832 47.1951 34.7871 48.9912 32.5715 48.9912H5.85127C3.63568 48.9912 1.8396 47.1951 1.8396 44.9795V41.5691C1.8396 37.8191 3.78795 34.356 7.02032 32.3865C8.21286 31.6601 9.56969 31.1667 11.0224 30.9748C11.1045 30.9611 11.6802 30.9473 12.5711 30.9473C12.9673 30.9337 13.4315 30.9336 13.9366 30.9336H24.4703C24.9764 30.9336 25.4414 30.9337 25.8379 30.9473C26.729 30.9473 27.3182 30.9611 27.4006 30.9748C29.004 31.1941 30.4843 31.7835 31.7725 32.6468C34.3885 34.2476 36.5832 37.6256 36.5832 41.5691Z" fill="#5BC658"/>
<g opacity="0.3">
<path d="M4.59872 41.9973C4.59069 41.9973 4.58399 41.9973 4.57596 41.9973C4.19719 41.9839 3.9014 41.6667 3.91344 41.2893C3.97453 39.5274 4.51535 37.8551 5.59584 36.4174C5.82204 36.1176 6.25167 36.0534 6.5555 36.2822C6.85798 36.5084 6.91821 36.9381 6.69068 37.2419C5.79412 38.4366 5.33249 39.8315 5.28399 41.3348C5.27061 41.7055 4.96678 41.9973 4.59872 41.9973Z" fill="white"/>
</g>
<g opacity="0.3">
<path d="M7.33187 35.5139C7.10969 35.2074 7.17929 34.7791 7.48579 34.557C7.65711 34.4325 7.83111 34.3147 8.00778 34.2036C8.33034 34.0042 8.75195 34.0992 8.95271 34.4204C9.15347 34.7417 9.05577 35.1646 8.73588 35.3654C8.5833 35.4604 8.43608 35.5621 8.28885 35.6679C7.97464 35.8923 7.55059 35.8158 7.33187 35.5139Z" fill="white"/>
</g>
<path d="M25.8376 30.9464V31.2479C25.8376 34.9075 22.8636 37.8815 19.2044 37.8815C15.5448 37.8815 12.5708 34.9075 12.5708 31.2479V30.9464C12.9683 30.9327 13.4343 30.9327 13.9414 30.9327C16.9153 30.9053 21.4931 30.9053 24.4671 30.9327C24.9743 30.9327 25.4403 30.9327 25.8376 30.9464Z" fill="#49A147"/>
<path d="M36.5899 41.5666V44.9763C36.5899 47.1965 34.79 48.9965 32.5697 48.9965H5.84784C4.23022 48.9965 2.84259 48.0369 2.21619 46.6493C2.65229 46.8159 3.12014 46.911 3.61176 46.911H30.3416C32.5618 46.911 34.3538 45.111 34.3538 42.891V39.4813C34.3538 36.6644 33.0915 33.8884 31.9988 32.7969C34.43 34.3004 36.5899 37.7075 36.5899 41.5666Z" fill="#49A247"/>
<path d="M23.1029 27.8848L23.1029 31.2428C23.1029 33.3938 21.3591 35.1376 19.2081 35.1376C17.0571 35.1376 15.3133 33.3938 15.3134 31.2428L15.3134 27.8848C16.5157 28.7278 17.6593 29.231 19.2081 29.231C20.7568 29.231 21.9004 28.7278 23.1029 27.8848Z" fill="#F7C9A9"/>
<path d="M23.0968 27.8887V31.2465C23.0968 32.4528 22.5487 33.5355 21.6852 34.2481C21.7399 34.0013 21.7674 33.741 21.7674 33.4807C21.7674 32.1184 20.5297 31.0355 19.1991 31.3277C18.7873 31.4182 18.3505 31.466 17.8751 31.466C16.9019 31.466 16.0797 31.2602 15.3121 30.9039V27.8887C16.5182 28.7249 17.6557 29.2318 19.2046 29.2318C20.7532 29.2318 21.9046 28.7249 23.0968 27.8887Z" fill="#E8AA80"/>
<path d="M28.0085 16.9779V21.1307C28.0085 26.0648 24.0203 30.053 19.0862 30.053C16.6193 30.053 14.3853 29.0525 12.768 27.4354C11.1645 25.8316 10.1639 23.5978 10.1639 21.1307V17.5263L11.0686 15.0318C11.0823 14.7303 11.3152 14.47 11.6167 14.4014C12.6446 14.2094 14.9746 13.5652 16.4136 11.6054C16.6741 11.2491 17.1949 11.2079 17.4827 11.5369C18.5381 12.7702 21.2243 14.9769 26.6517 14.5657C27.0628 14.5246 27.4055 14.8401 27.4055 15.2373L28.0085 16.9779Z" fill="#F7C9A9"/>
<path d="M28.012 20.0899V21.1347C28.012 26.0627 24.0118 30.063 19.0838 30.063C16.6197 30.063 14.3896 29.0649 12.7755 27.4507C11.1614 25.8289 10.1633 23.5988 10.1633 21.1347V20.0899C10.1633 22.5538 11.1614 24.784 12.7755 26.4059C14.3896 28.0199 16.6197 29.018 19.0838 29.018C24.0118 29.018 28.012 25.0179 28.012 20.0899Z" fill="#F0B68E"/>
<path d="M28.01 14.4845V21.14C29.8175 21.1014 31.2744 19.6288 31.2744 17.8123C31.2744 15.9956 29.8175 14.523 28.01 14.4845Z" fill="#F7C9A9"/>
<path d="M10.16 14.4845V21.14C8.35251 21.1014 6.89563 19.6288 6.89563 17.8123C6.89563 15.9956 8.35251 14.523 10.16 14.4845Z" fill="#F7C9A9"/>
<path d="M31.271 17.81C31.271 19.6268 29.8208 21.1007 28.0117 21.1396V20.5236C29.7037 20.4846 31.0917 19.1902 31.2554 17.5293C31.2632 17.6229 31.271 17.7165 31.271 17.81Z" fill="#F0B68E"/>
<path d="M10.1631 20.5236V21.1396C8.35411 21.1007 6.89587 19.6268 6.89587 17.81C6.89587 17.7165 6.90368 17.6229 6.91148 17.5293C7.08301 19.1902 8.46319 20.4846 10.1631 20.5236Z" fill="#F0B68E"/>
<path d="M20.3487 22.0117C20.5611 22.3454 20.512 22.8273 20.254 23.1813C20.0054 23.549 19.5455 23.7717 19.0855 23.7777C18.6231 23.7743 18.1627 23.5503 17.9139 23.1823C17.6561 22.828 17.6072 22.3454 17.8211 22.0117C18.033 22.3415 18.2549 22.5174 18.4669 22.6317C18.6846 22.7359 18.8824 22.7854 19.0836 22.7783C19.2872 22.7861 19.4857 22.7361 19.7037 22.6322C19.9163 22.5182 20.1382 22.3416 20.3487 22.0117Z" fill="#E8AA80"/>
<path d="M24.1402 19.4206C24.1402 20.0874 23.5999 20.6321 22.9331 20.6321C22.2663 20.6321 21.7216 20.0874 21.7216 19.4206C21.7216 18.7538 22.2663 18.209 22.9331 18.209C23.5999 18.209 24.1402 18.7538 24.1402 19.4206Z" fill="#2D2C2C"/>
<path d="M24.2595 17.5703H21.6013C21.3943 17.5703 21.2263 17.4024 21.2263 17.1953C21.2263 16.9883 21.3943 16.8203 21.6013 16.8203H24.2595C24.4666 16.8203 24.6345 16.9883 24.6345 17.1953C24.6345 17.4024 24.4666 17.5703 24.2595 17.5703Z" fill="#2D2C2C"/>
<path d="M16.4482 19.4206C16.4482 20.0874 15.9078 20.6321 15.241 20.6321C14.5743 20.6321 14.0295 20.0874 14.0295 19.4206C14.0295 18.7538 14.5743 18.209 15.241 18.209C15.9078 18.209 16.4482 18.7538 16.4482 19.4206Z" fill="#2D2C2C"/>
<path d="M16.568 17.5703H13.9098C13.7028 17.5703 13.5348 17.4024 13.5348 17.1953C13.5348 16.9883 13.7028 16.8203 13.9098 16.8203H16.568C16.775 16.8203 16.943 16.9883 16.943 17.1953C16.943 17.4024 16.775 17.5703 16.568 17.5703Z" fill="#2D2C2C"/>
<path d="M16.7174 25.4727C16.4126 25.4727 16.2247 25.8272 16.4137 26.0663C17.0383 26.8566 17.9969 27.3675 19.0826 27.3675C20.1681 27.3675 21.1289 26.8568 21.7557 26.0668C21.9453 25.8278 21.7575 25.4727 21.4524 25.4727H16.7174Z" fill="#E8AA80"/>
<path d="M28.9952 18.8424C28.8926 18.7487 28.8848 18.5915 28.9776 18.4889C29.4551 17.9635 29.0958 17.2477 29.0919 17.2409C29.0294 17.1178 29.0772 16.9674 29.2003 16.904C29.3194 16.8424 29.4727 16.8893 29.5372 17.0124C29.5587 17.0544 30.0548 18.0465 29.3487 18.8249C29.254 18.9289 29.0962 18.9331 28.9952 18.8424Z" fill="#F0B68E"/>
<path d="M8.91989 18.8232C8.21383 18.0448 8.70993 17.0526 8.73141 17.0107C8.79587 16.8886 8.94137 16.8398 9.06735 16.9023C9.18942 16.9648 9.23922 17.1151 9.17672 17.2382C9.16208 17.2675 8.81833 17.9677 9.29098 18.4872C9.38376 18.5898 9.37594 18.747 9.2734 18.8407C9.1724 18.9314 9.0146 18.9272 8.91989 18.8232Z" fill="#F0B68E"/>
<path d="M34.4767 33.7924V30.5419C34.4767 28.1207 36.446 26.1509 38.8671 26.1509C41.3348 26.1509 43.2466 28.1676 43.2466 30.5419V33.7924H45.6046V30.5419C45.6046 26.8451 42.6229 23.793 38.8671 23.793C35.1462 23.793 32.1188 26.8204 32.1188 30.5419V33.7924H34.4767Z" fill="#E3E2FF"/>
<path d="M43.743 25.8968C42.6016 25.0512 41.2204 24.5932 39.7689 24.5932C36.0414 24.5932 33.0184 27.6231 33.0184 31.3436V33.7958H32.1165V30.5474C32.1165 26.8198 35.1464 23.7969 38.867 23.7969C40.9243 23.7969 42.8232 24.7886 43.743 25.8968Z" fill="#C1C1EE"/>
<path d="M48.1594 35.869V46.9289C48.1594 48.0723 47.2325 48.9991 46.0892 48.9991H31.7266C30.5832 48.9991 29.6564 48.0723 29.6564 46.9289V35.869C29.6564 34.7257 30.5832 33.7989 31.7266 33.7989H46.0892C47.2325 33.7989 48.1594 34.7257 48.1594 35.869Z" fill="#F9B938"/>
<path d="M48.1607 35.8729V46.9328C48.1607 48.0724 47.2312 49.0019 46.0916 49.0019H31.7285C30.9144 49.0019 30.2107 48.5345 29.8746 47.8518C30.1372 47.9831 30.4366 48.0514 30.7464 48.0514H45.1095C46.2543 48.0514 47.1839 47.1218 47.1839 45.977V34.9171C47.1839 34.5863 47.1052 34.2764 46.9634 33.9981C47.6723 34.3237 48.1607 35.0431 48.1607 35.8729Z" fill="#EBAF21"/>
<g opacity="0.4">
<path d="M31.8107 39.5516L31.8195 44.2763C31.8195 44.5816 31.5665 44.826 31.2698 44.826C30.9645 44.826 30.7202 44.5729 30.7202 44.2763L30.7114 39.5516C30.7114 39.2462 30.9557 39.0019 31.2611 39.0019C31.4705 39.0019 31.645 39.1153 31.741 39.2811C31.7846 39.3596 31.8107 39.4556 31.8107 39.5516Z" fill="white"/>
<path d="M30.7114 37.3259V36.6454C30.7114 36.3488 30.9557 36.0957 31.2611 36.0957C31.4705 36.0957 31.645 36.2092 31.741 36.3837C31.7846 36.4622 31.8107 36.5494 31.8107 36.6454V37.3259C31.8107 37.6313 31.5665 37.8756 31.2611 37.8756C30.9557 37.8756 30.7114 37.6313 30.7114 37.3259Z" fill="white"/>
</g>
<path d="M40.7279 42.2075L41.1278 45.1775C41.1879 45.6775 40.7977 46.1175 40.2977 46.1175H37.5277C37.0179 46.1175 36.6278 45.6775 36.6979 45.1775L37.0978 42.2075C36.3378 41.6575 35.8478 40.7575 35.8478 39.7475C35.8478 38.0575 37.2179 36.6875 38.9078 36.6875C40.5978 36.6875 41.9679 38.0575 41.9679 39.7475C41.9679 40.7575 41.4779 41.6475 40.7279 42.2075Z" fill="#474646"/>
<path d="M38.1497 46.1214H37.5217C37.0197 46.1214 36.6328 45.6789 36.6998 45.1814L37.0997 42.2115C35.1852 40.8256 35.5066 37.7745 37.8137 36.8985C38.4997 36.6381 39.1351 36.6441 39.7198 36.8014C38.1299 36.9115 36.8697 38.2315 36.8697 39.8515C36.8697 40.7639 37.2698 41.5866 37.9073 42.1425C38.0345 42.2534 38.106 42.413 38.0835 42.5802L37.7198 45.2815C37.6697 45.6414 37.8497 45.9615 38.1497 46.1214Z" fill="#1B1B1B"/>
</svg>
