<svg width="147" height="134" viewBox="0 0 147 134" fill="none" xmlns="http://www.w3.org/2000/svg">
<g filter="url(#filter0_d_655_21144)">
<path d="M12.855 86.539H13.7199V87.6235H12.8695C12.6878 87.6235 12.5061 87.5939 12.3317 87.5384C12.2009 88.0454 11.9247 88.4378 11.5032 88.7228C11.1289 88.9745 10.6892 89.1003 10.1877 89.1003C9.44269 89.1003 8.86852 88.856 8.46152 88.3637C8.15263 87.9825 8 87.5347 8 87.0165C8 86.6241 8.08722 86.2762 8.25801 85.9727L9.34458 85.7247C9.15197 86.0541 9.05749 86.4317 9.05749 86.8536C9.05749 87.2163 9.15924 87.4976 9.35911 87.7049C9.55898 87.9122 9.83516 88.0158 10.1913 88.0158C10.5474 88.0158 10.8091 87.9159 11.0089 87.7197C11.2088 87.5199 11.3106 87.2534 11.3106 86.9128V83.2301L12.4189 82.6342V86.0912C12.4189 86.2577 12.4516 86.3725 12.517 86.4391C12.5825 86.5057 12.6951 86.539 12.8586 86.539H12.855Z" fill="white"/>
<path d="M17.5502 86.539V87.6235H13.313V86.539H14.3523C14.2469 86.2873 14.1924 86.0097 14.1924 85.7099C14.1924 85.1621 14.3814 84.7253 14.7629 84.3959C15.0718 84.1331 15.4316 83.9999 15.8422 83.9999C16.3946 83.9999 16.8416 84.2442 17.1868 84.7365V85.7099C16.8089 85.2731 16.4019 85.0511 15.9731 85.0511H15.944C15.5152 85.0622 15.2971 85.2953 15.2971 85.7469C15.2971 85.9949 15.3771 86.1874 15.5334 86.328C15.6896 86.4687 15.9113 86.5353 16.1947 86.5353H17.5539L17.5502 86.539Z" fill="white"/>
<path d="M20.0502 87.6197C19.585 87.6197 19.218 87.468 18.9563 87.1645C18.7274 86.898 18.6147 86.5538 18.6147 86.1355V83.2263L19.7158 82.6304V86.0874C19.7158 86.254 19.7485 86.3687 19.814 86.4353C19.8794 86.502 19.992 86.5353 20.1556 86.5353H20.9005V87.6197H20.0502Z" fill="white"/>
<path d="M24.2184 86.539H25.3123V87.6235H23.557C23.299 87.6235 23.081 87.6013 22.9029 87.5606C22.7212 87.6013 22.5032 87.6235 22.2488 87.6235H20.4863V86.539H21.5874C21.4421 86.254 21.3658 85.9727 21.3658 85.6951C21.3658 85.1733 21.5147 84.755 21.8127 84.4404C22.0926 84.148 22.4523 84 22.8993 84C23.4044 84 23.8005 84.1887 24.084 84.5663C24.3166 84.8698 24.4328 85.2473 24.4328 85.6951C24.4328 85.9727 24.3602 86.254 24.2112 86.539H24.2184ZM22.8993 83.5669C22.7285 83.5669 22.5904 83.5151 22.485 83.4078C22.3796 83.3004 22.3288 83.1598 22.3288 82.9858C22.3288 82.8118 22.3796 82.6712 22.485 82.5676C22.5904 82.4639 22.7285 82.4121 22.8993 82.4121C23.0701 82.4121 23.2009 82.4639 23.3027 82.5676C23.4044 82.6712 23.4553 82.8118 23.4553 82.9858C23.4553 83.1598 23.4044 83.3004 23.3027 83.4078C23.2009 83.5151 23.0665 83.5669 22.8993 83.5669ZM22.9066 86.428C23.0447 86.3577 23.1537 86.2429 23.2409 86.0912C23.3281 85.9394 23.3717 85.784 23.3717 85.6248C23.3717 85.2436 23.2191 85.0511 22.9102 85.0511C22.6013 85.0511 22.4378 85.2399 22.4378 85.6174C22.4378 85.784 22.4814 85.9431 22.5686 86.0949C22.6558 86.2466 22.7685 86.3577 22.9102 86.4317L22.9066 86.428Z" fill="white"/>
<path d="M27.6378 86.539H28.3755V87.6235H27.5325C27.1763 87.6235 26.8856 87.5347 26.653 87.3607C26.4096 87.5347 26.1152 87.6235 25.7627 87.6235H24.9124V86.539H25.6573C25.8209 86.539 25.9335 86.5057 25.9989 86.4391C26.0643 86.3725 26.097 86.2577 26.097 86.0912V84.7365L27.1981 84.1406V86.0912C27.1981 86.2577 27.2308 86.3725 27.2926 86.4391C27.3544 86.5057 27.4707 86.539 27.6378 86.539ZM25.541 83.5743C25.3702 83.5743 25.2321 83.5188 25.1268 83.4115C25.0214 83.3041 24.9705 83.1598 24.9705 82.9858C24.9705 82.8118 25.0214 82.6786 25.1268 82.5713C25.2285 82.4639 25.3702 82.4121 25.541 82.4121C25.7118 82.4121 25.8427 82.4639 25.9444 82.5676C26.0462 82.6712 26.097 82.8118 26.097 82.9858C26.097 83.1598 26.0462 83.3115 25.9444 83.4152C25.8427 83.5225 25.7082 83.5743 25.541 83.5743ZM26.8093 83.5743C26.6385 83.5743 26.5004 83.5188 26.395 83.4115C26.2896 83.3041 26.2388 83.1598 26.2388 82.9858C26.2388 82.8118 26.2896 82.6786 26.395 82.5713C26.5004 82.4639 26.6385 82.4121 26.8093 82.4121C26.9801 82.4121 27.1109 82.4639 27.2127 82.5676C27.3144 82.6712 27.3653 82.8118 27.3653 82.9858C27.3653 83.1598 27.3144 83.3115 27.2127 83.4152C27.1109 83.5225 26.9765 83.5743 26.8093 83.5743Z" fill="white"/>
<path d="M27.9724 87.62V86.5355H28.4666C28.681 86.5355 28.8264 86.4911 28.91 86.3986C28.9935 86.306 29.0371 86.1506 29.0371 85.9211V83.2192L30.1382 82.6233V85.9285C30.1382 86.4541 29.982 86.8723 29.6658 87.1832C29.3787 87.4719 28.9935 87.6163 28.5175 87.6163H27.9688L27.9724 87.62Z" fill="white"/>
<path d="M31.5046 87.6197V83.2263L32.6057 82.6304V87.6197H31.5046Z" fill="white"/>
<path d="M37.279 87.6198C36.7812 87.6198 36.396 87.4496 36.1161 87.1091C35.8763 86.8166 35.76 86.4428 35.76 85.995C35.76 85.4953 35.9126 85.0622 36.2215 84.7032C36.4941 84.3849 36.8611 84.148 37.3154 84C37.8423 84.1739 38.242 84.4552 38.5146 84.8365C38.7544 85.177 38.8707 85.5619 38.8707 85.9987C38.8707 86.5205 38.7144 86.9314 38.4056 87.2275C38.133 87.4903 37.7805 87.6235 37.3481 87.6235H37.2717L37.279 87.6198ZM36.6467 83.2486C36.4759 83.2486 36.3378 83.1931 36.2324 83.0858C36.127 82.9784 36.0762 82.8341 36.0762 82.6601C36.0762 82.4861 36.1307 82.3529 36.2361 82.2493C36.3414 82.1456 36.4795 82.0938 36.6467 82.0938C36.8139 82.0938 36.9483 82.1456 37.0501 82.2493C37.1518 82.3529 37.2027 82.4898 37.2027 82.6601C37.2027 82.8415 37.1518 82.9821 37.0501 83.0895C36.9483 83.1968 36.8139 83.2486 36.6467 83.2486ZM37.279 86.539H37.3626C37.6497 86.539 37.795 86.3614 37.795 86.0061C37.795 85.5878 37.6351 85.2732 37.3154 85.0622C37.0065 85.2732 36.8538 85.5841 36.8538 85.9913C36.8538 86.3577 36.9956 86.539 37.279 86.539ZM37.915 83.2486C37.7442 83.2486 37.6061 83.1931 37.5007 83.0858C37.3953 82.9784 37.3444 82.8341 37.3444 82.6601C37.3444 82.4861 37.3953 82.3529 37.5007 82.2493C37.6061 82.1456 37.7442 82.0938 37.915 82.0938C38.0858 82.0938 38.2166 82.1456 38.3183 82.2493C38.4201 82.3529 38.471 82.4898 38.471 82.6601C38.471 82.8415 38.4201 82.9821 38.3183 83.0895C38.2166 83.1968 38.0821 83.2486 37.915 83.2486Z" fill="white"/>
<path d="M39.4194 87.6198L39.9754 86.5353H41.1056C41.3091 86.5353 41.4109 86.4206 41.4109 86.1874C41.4109 85.6766 41.1637 85.2806 40.6659 84.9956L41.2037 84.0518C42.0795 84.5662 42.5192 85.2843 42.5192 86.2022C42.5192 87.1201 42.1159 87.6198 41.3127 87.6198H39.4194Z" fill="white"/>
<path d="M45.1647 87.6197C44.6995 87.6197 44.3325 87.468 44.0708 87.1645C43.8419 86.898 43.7292 86.5538 43.7292 86.1355V83.2263L44.8303 82.6304V86.0874C44.8303 86.254 44.8631 86.3687 44.9285 86.4353C44.9939 86.502 45.1065 86.5353 45.2701 86.5353H46.015V87.6197H45.1647Z" fill="white"/>
<path d="M46.0007 89.4408C45.8299 89.4408 45.6918 89.3853 45.5864 89.2779C45.4847 89.1706 45.4302 89.0262 45.4302 88.8523C45.4302 88.6783 45.4811 88.5451 45.5864 88.4414C45.6918 88.3378 45.8299 88.286 46.0007 88.286C46.1715 88.286 46.3023 88.3378 46.4041 88.4414C46.5058 88.5451 46.5567 88.682 46.5567 88.8523C46.5567 89.0336 46.5058 89.1743 46.4041 89.2816C46.3023 89.389 46.1679 89.4408 46.0007 89.4408ZM45.6046 87.6197V86.5353H46.3496C46.5131 86.5353 46.6258 86.502 46.6912 86.4353C46.7566 86.3687 46.7893 86.254 46.7893 86.0874V84.7327L47.8904 84.1368V86.1318C47.8904 86.613 47.745 86.9868 47.4507 87.2607C47.1963 87.4976 46.8656 87.616 46.455 87.616H45.6046V87.6197ZM47.2617 89.4408C47.0945 89.4408 46.9601 89.3853 46.8547 89.2779C46.7493 89.1706 46.6984 89.0262 46.6984 88.8523C46.6984 88.6783 46.7493 88.5451 46.8547 88.4414C46.9564 88.3378 47.0945 88.286 47.2617 88.286C47.4289 88.286 47.5633 88.3378 47.6687 88.4414C47.7741 88.5451 47.825 88.682 47.825 88.8523C47.825 89.0336 47.7741 89.1743 47.6723 89.2816C47.5706 89.389 47.4325 89.4408 47.2617 89.4408Z" fill="white"/>
<path d="M51.248 87.1017C51.248 87.5459 51.1608 87.9308 50.9827 88.2602C50.8046 88.5859 50.5539 88.8265 50.2305 88.9746C50.0161 89.0782 49.7871 89.13 49.54 89.13C49.2057 89.13 48.8786 89.0412 48.5588 88.8598V87.8864C48.8205 88.0344 49.0785 88.1122 49.3256 88.1122C49.4528 88.1122 49.5691 88.09 49.6745 88.0492C49.9834 87.9419 50.136 87.6532 50.136 87.1832V84.744L51.2444 84.1407V87.1054L51.248 87.1017ZM50.6956 83.4449C50.5248 83.4449 50.3867 83.393 50.2813 83.2857C50.176 83.1784 50.1251 83.0377 50.1251 82.8638C50.1251 82.6898 50.176 82.5491 50.2813 82.4455C50.3867 82.3419 50.5248 82.2901 50.6956 82.2901C50.8664 82.2901 50.9972 82.3419 51.099 82.4455C51.2007 82.5491 51.2516 82.6898 51.2516 82.8638C51.2516 83.0377 51.2007 83.1784 51.099 83.2857C50.9972 83.393 50.8628 83.4449 50.6956 83.4449Z" fill="white"/>
<path d="M56.4229 86.539H57.1678V87.6235H56.3175C56.2012 87.6235 56.0776 87.6124 55.9541 87.5865C55.8378 88.2638 55.5107 88.7265 54.9729 88.9782C54.7585 89.0818 54.5296 89.1336 54.2824 89.1336C53.9481 89.1336 53.6211 89.0448 53.3013 88.8634V87.89C53.5629 88.0381 53.8209 88.1158 54.068 88.1158C54.1952 88.1158 54.3115 88.0936 54.4169 88.0529C54.7258 87.9455 54.8784 87.6568 54.8784 87.1868V84.7402L55.9795 84.1443V84.1517L55.9868 84.1443V86.2244C56.0122 86.4354 56.1576 86.5427 56.4192 86.5427L56.4229 86.539Z" fill="white"/>
<path d="M61.685 86.5393H62.3682V87.6238H61.6777C61.2889 87.6238 60.9727 87.5793 60.7329 87.4905C60.493 87.4017 60.2714 87.2499 60.0679 87.0353C59.4246 87.4276 58.7015 87.6238 57.8947 87.6238H56.7537V86.5393H57.902C58.7269 86.5393 59.3883 86.3024 59.8862 85.8286C59.5664 85.3031 59.1921 85.0403 58.7633 85.0403C58.3744 85.0403 57.9238 85.266 57.4114 85.7139V84.7405C57.8402 84.2519 58.3308 84.0039 58.8759 84.0039H58.8904C59.2938 84.0039 59.6899 84.152 60.0679 84.4481C60.4458 84.7442 60.7838 85.1661 61.0781 85.7139V86.1247C60.9909 86.2321 60.9073 86.332 60.8274 86.4282C61.0054 86.506 61.2889 86.543 61.685 86.543V86.5393ZM59.163 88.2863C59.3302 88.2863 59.4646 88.3381 59.5664 88.4417C59.6681 88.5454 59.719 88.6823 59.719 88.86C59.719 89.0376 59.6681 89.1746 59.5664 89.2819C59.4646 89.3893 59.3302 89.4411 59.163 89.4411C58.9958 89.4411 58.8541 89.3893 58.7487 89.2819C58.6433 89.1746 58.5925 89.0339 58.5925 88.86C58.5925 88.686 58.6433 88.5454 58.7487 88.4417C58.8541 88.3381 58.9922 88.2863 59.163 88.2863Z" fill="white"/>
<path d="M64.694 86.539H65.4317V87.6235H64.5886C64.2325 87.6235 63.9418 87.5347 63.7092 87.3607C63.4657 87.5347 63.1714 87.6235 62.8189 87.6235H61.9685V86.539H62.7135C62.877 86.539 62.9897 86.5057 63.0551 86.4391C63.1205 86.3725 63.1532 86.2577 63.1532 86.0912V84.7365L64.2543 84.1406V86.0912C64.2543 86.2577 64.287 86.3725 64.3488 86.4391C64.4105 86.5057 64.5268 86.539 64.694 86.539ZM62.5972 83.5743C62.4264 83.5743 62.2883 83.5188 62.1829 83.4115C62.0775 83.3041 62.0266 83.1598 62.0266 82.9858C62.0266 82.8118 62.0775 82.6786 62.1829 82.5713C62.2847 82.4639 62.4264 82.4121 62.5972 82.4121C62.768 82.4121 62.8988 82.4639 63.0006 82.5676C63.1023 82.6712 63.1532 82.8118 63.1532 82.9858C63.1532 83.1598 63.1023 83.3115 63.0006 83.4152C62.8988 83.5225 62.7643 83.5743 62.5972 83.5743ZM63.8654 83.5743C63.6947 83.5743 63.5566 83.5188 63.4512 83.4115C63.3458 83.3041 63.2949 83.1598 63.2949 82.9858C63.2949 82.8118 63.3458 82.6786 63.4512 82.5713C63.5566 82.4639 63.6947 82.4121 63.8654 82.4121C64.0362 82.4121 64.1671 82.4639 64.2688 82.5676C64.3706 82.6712 64.4214 82.8118 64.4214 82.9858C64.4214 83.1598 64.3706 83.3115 64.2688 83.4152C64.1671 83.5225 64.0326 83.5743 63.8654 83.5743Z" fill="white"/>
<path d="M66.2128 85.4619C66.2128 84.9881 66.3581 84.6143 66.6452 84.3478C66.8996 84.1146 67.2266 83.9999 67.6336 83.9999C68.146 83.9999 68.5421 84.1924 68.8256 84.5736C69.0691 84.8993 69.189 85.3101 69.189 85.8098C69.189 86.3835 69.0364 86.8351 68.7275 87.1719C68.4586 87.4717 68.1133 87.6197 67.6882 87.6197C67.2884 87.6197 66.965 87.542 66.7142 87.3866C66.4853 87.542 66.2091 87.6197 65.8784 87.6197H65.0281V86.5353H65.773C65.9366 86.5353 66.0492 86.502 66.1146 86.4353C66.18 86.3687 66.2128 86.254 66.2128 86.0874V85.4619ZM67.3175 86.2355C67.3175 86.4353 67.4229 86.539 67.6373 86.539C67.9498 86.539 68.1097 86.2836 68.1097 85.7728C68.1097 85.2916 67.9534 85.0548 67.6373 85.0548C67.4229 85.0548 67.3175 85.1806 67.3175 85.4323V86.2355Z" fill="white"/>
</g>
<g filter="url(#filter1_d_655_21144)">
<path fill-rule="evenodd" clip-rule="evenodd" d="M95.2626 8.10145C89.7535 7.12431 87.5695 13.4276 85.9233 17.4768C84.1971 21.7222 80.287 31.8008 75.8353 40.4137L75.8462 40.4211C73.6985 44.5554 71.7071 47.794 69.8356 50.1961C69.8465 50.1961 69.8574 50.1961 69.872 50.1961C68.7999 51.5841 67.7424 52.7204 66.7104 53.5199C66.7031 53.5273 66.6959 53.5347 66.6886 53.5384C66.4378 53.7309 66.1907 53.9048 65.9436 54.0529C65.6529 54.2305 65.3694 54.3786 65.086 54.497C63.6687 55.0818 61.8263 52.9795 60.3509 50.7809C55.4196 50.8069 51.2042 51.2362 47.7555 52.0579C47.7301 52.0653 47.7046 52.069 47.6792 52.0764C48.0535 52.8055 48.3915 53.4385 48.6749 53.9344C54.0023 63.2321 62.2806 71.0529 72.8809 63.4689C75.3556 61.6997 77.6523 59.2532 79.7891 56.3773C76.2641 72.5112 72.2886 88.9449 67.8406 104.353C66.8885 107.651 64.0903 117.378 62.1933 120.08C61.4883 117.408 62.157 109.824 62.3605 107.196C61.8663 109.798 59.7913 119.762 61.1613 121.531C63.5561 124.633 68.7491 111.378 69.2505 110.227C76.6966 93.1236 83.4376 73.8251 89.4555 55.9887L89.4918 55.8776L94.514 40.6246L94.5867 40.6505C95.0737 39.0627 95.5206 37.5156 95.8949 36.0535C97.3195 30.5016 99.1546 23.5099 99.9468 17.9765C100.557 13.6978 100.129 8.97125 95.259 8.10515L95.2626 8.10145Z" fill="white"/>
<path fill-rule="evenodd" clip-rule="evenodd" d="M62.3491 120.534C62.3491 120.534 62.3457 120.52 62.3423 120.517C62.3457 120.523 62.3524 120.527 62.3558 120.534H62.3491Z" fill="white"/>
<path fill-rule="evenodd" clip-rule="evenodd" d="M92.6389 49.2524L90.9019 54.5231C106.888 59.3829 122.343 67.274 134.739 74.5507C122.565 65.4085 108.054 55.9073 92.6389 49.2524Z" fill="white"/>
<path fill-rule="evenodd" clip-rule="evenodd" d="M38.0603 43.2822C28.6519 45.9767 22.1907 50.322 18.1315 53.9011C14.4394 57.2878 11.3759 61.1186 9.56619 65.0531C7.75646 68.9876 6.77165 74.1286 11.2996 76.6159C13.113 77.6116 14.8609 77.5856 16.4998 76.8935C15.8821 75.7498 16.5434 73.2551 18.226 70.4607C19.7195 67.9771 22.6376 64.1796 28.0523 60.1822C33.9502 55.8295 40.3243 52.8759 47.5486 51.1474C51.3352 50.2406 56.0158 49.8075 61.5286 49.8482H61.554C63.927 49.8112 66.3291 49.9 68.7457 50.0962C70.2465 48.2493 71.8346 45.8212 73.5353 42.7825C60.7 40.0435 48.7696 40.2101 38.0639 43.2784L38.0603 43.2822Z" fill="white"/>
<path fill-rule="evenodd" clip-rule="evenodd" d="M19.0071 70.9455C17.1465 74.0398 16.9867 75.9829 17.3246 76.4789C17.3246 76.4789 17.3246 76.4789 17.3282 76.4826C22.1142 73.7696 25.9335 65.6416 27.8959 61.4591C23.0481 65.1678 20.3953 68.6433 19.0071 70.9455Z" fill="white"/>
<path fill-rule="evenodd" clip-rule="evenodd" d="M42.2466 23.4689C33.863 20.3598 28.7645 29.428 26.0027 35.8571C24.5273 39.2956 22.2342 45.4323 19.6904 51.4062C23.4371 48.4896 28.6555 45.3509 35.5746 43.0709C35.7745 42.5675 35.9816 42.0642 36.1887 41.5534C36.8247 40.0063 37.9076 37.4857 39.085 35.7313C40.019 37.0711 41.1346 39.0698 42.2866 41.2795C46.2585 40.4578 50.3795 40.0063 54.6348 39.9248C51.4188 33.1996 47.3923 25.3714 42.2466 23.4615V23.4689Z" fill="white"/>
<path style="mix-blend-mode:multiply" fill-rule="evenodd" clip-rule="evenodd" d="M70.1445 65.1234C60.8524 69.6686 53.5372 62.4178 48.6785 53.9381C48.3915 53.4385 48.0571 52.8055 47.6792 52.0801C47.7046 52.0727 47.7301 52.069 47.7555 52.0616C51.2042 51.2362 55.4196 50.8106 60.3509 50.7846C61.8263 52.9832 63.6651 55.0855 65.086 54.5007C65.3695 54.3823 65.6529 54.2379 65.9436 54.0566C66.1907 53.9048 66.4378 53.7346 66.6886 53.5421C66.6959 53.5384 66.7031 53.531 66.7104 53.5236C66.794 53.4607 66.8776 53.3904 66.9611 53.3237L70.1445 65.1271V65.1234Z" fill="url(#paint0_linear_655_21144)"/>
<path style="mix-blend-mode:multiply" fill-rule="evenodd" clip-rule="evenodd" d="M54.6351 39.9289C50.3797 40.0066 46.2587 40.4582 42.2868 41.2836C41.1348 39.0702 40.0192 37.0752 39.0852 35.7353C39.0562 35.7798 39.0271 35.8242 38.9944 35.8723L41.8289 23.3249C41.967 23.3694 42.1087 23.4175 42.2468 23.473C47.3925 25.3829 51.419 33.2074 54.6351 39.9363V39.9289Z" fill="url(#paint1_linear_655_21144)"/>
<path fill-rule="evenodd" clip-rule="evenodd" d="M92.6389 49.2524L90.9019 54.5231C106.888 59.3829 122.343 67.274 134.739 74.5507C122.565 65.4085 108.054 55.9073 92.6389 49.2524Z" fill="white"/>
<path fill-rule="evenodd" clip-rule="evenodd" d="M38.0603 43.2822C28.6519 45.9767 22.1907 50.322 18.1315 53.9011C14.4394 57.2878 11.3759 61.1186 9.56619 65.0531C7.75646 68.9876 6.77165 74.1286 11.2996 76.6159C13.113 77.6116 14.8609 77.5856 16.4998 76.8935C15.8821 75.7498 16.5434 73.2551 18.226 70.4607C19.7195 67.9771 22.6376 64.1796 28.0523 60.1822C33.9502 55.8295 40.3243 52.8759 47.5486 51.1474C51.3352 50.2406 56.0158 49.8075 61.5286 49.8482H61.554C63.927 49.8112 66.3291 49.9 68.7457 50.0962C70.2465 48.2493 71.8346 45.8212 73.5353 42.7825C60.7 40.0435 48.7696 40.2101 38.0639 43.2784L38.0603 43.2822Z" fill="white"/>
<path d="M90.8693 90.1853C91.5998 89.6153 92.3774 89.0416 93.2023 88.4605C93.355 87.7424 93.5585 87.0429 93.8201 86.3619C94.4415 84.7518 95.2992 83.3379 96.4003 82.1128C97.5014 80.8914 98.8205 79.9327 100.361 79.2406C101.902 78.5484 103.61 78.2005 105.492 78.2005C107.051 78.2005 108.512 78.4596 109.871 78.9704C112.953 77.4788 116.285 75.9612 119.869 74.4178C118.291 73.1557 116.518 72.1008 114.556 71.2643C111.834 70.1021 108.854 69.521 105.612 69.521C102.371 69.521 99.3801 70.1021 96.6401 71.2643C93.9001 72.4265 91.538 74.0144 89.5575 76.0316C87.5769 78.0488 86.0252 80.3917 84.906 83.0603C83.7867 85.7289 83.2271 88.5937 83.2271 91.6473V91.7694C83.2271 93.7422 83.456 95.6336 83.9139 97.4435C83.9866 97.3214 84.0629 97.2029 84.1392 97.0808C85.5528 94.8822 87.8131 92.5615 90.8621 90.1853H90.8693Z" fill="white"/>
<path d="M89.8702 104.406C90.1282 102.192 91.4728 99.6717 93.8458 96.8958C93.8385 96.8773 93.8312 96.8625 93.824 96.844C93.6641 96.422 93.5223 95.9927 93.4024 95.5559C90.0555 99.3164 88.0713 103.11 88.7436 106.53C88.9871 106.8 89.2415 107.067 89.5031 107.33C89.9937 107.818 90.5061 108.285 91.0403 108.721C90.0664 107.419 89.6812 105.994 89.8702 104.406Z" fill="white"/>
<path d="M112.772 80.5248C113.128 80.7802 113.466 81.0504 113.793 81.3391C113.858 81.3983 113.927 81.4575 113.993 81.5204C116.958 78.6964 121.253 75.6206 121.253 75.6206C118.993 76.8531 116.013 78.5335 112.775 80.5248H112.772Z" fill="white"/>
<path d="M126.228 82.9383C125.229 80.5177 123.87 78.382 122.147 76.5314C121.969 76.3426 121.791 76.1539 121.609 75.9688C121.489 75.8504 121.369 75.7356 121.25 75.6209C121.25 75.6209 116.958 78.6966 113.989 81.5207C114.214 81.7317 114.436 81.9464 114.647 82.1759C115.788 83.3973 116.667 84.826 117.288 86.4545C117.91 88.0831 118.219 89.8153 118.219 91.6511V91.7733C118.219 93.6054 117.91 95.3302 117.288 96.9366C116.667 98.5466 115.809 99.9605 114.708 101.186C113.607 102.407 112.277 103.366 110.718 104.058C109.159 104.75 107.459 105.098 105.616 105.098C103.774 105.098 102.026 104.743 100.485 104.028C98.9441 103.318 97.6032 102.348 96.4657 101.126C95.3392 99.9161 94.4634 98.5059 93.8456 96.8996C91.4763 99.6718 90.1317 102.196 89.87 104.409C89.6847 105.997 90.0699 107.422 91.0402 108.725C92.6682 110.061 94.507 111.164 96.5529 112.038C99.2748 113.2 102.255 113.781 105.496 113.781C108.738 113.781 111.728 113.2 114.469 112.038C117.209 110.876 119.571 109.288 121.551 107.271C123.532 105.253 125.083 102.91 126.203 100.242C127.322 97.5732 127.882 94.7084 127.882 91.6548V91.5327C127.882 88.4754 127.333 85.6143 126.232 82.9457L126.228 82.9383Z" fill="white"/>
<path d="M120.911 75.3097C117.419 76.805 114.232 78.2448 111.325 79.6365C103.148 83.5451 97.196 87.0391 92.9515 90.1481C88.2491 93.5903 85.6362 96.5588 84.4043 99.0904C83.9755 99.9751 83.7102 100.804 83.5867 101.581H84.368C84.8113 101.581 85.1711 101.948 85.1711 102.399V104.961C85.1711 105.412 84.8113 105.779 84.368 105.779H84.3244C86.4066 109.513 91.7014 111.16 91.7014 111.16C90.0043 109.732 89.0667 108.173 88.7433 106.53C88.071 103.11 90.0552 99.3162 93.4021 95.5557C98.2898 90.063 106.085 84.6369 112.771 80.5248C116.009 78.5335 118.989 76.8494 121.249 75.6206C123.859 74.1993 125.516 73.3813 125.516 73.3813C123.928 74.0328 122.394 74.6768 120.915 75.3097H120.911Z" fill="white"/>
<path d="M84.0375 102.133H82.1841C81.857 102.133 81.5918 102.403 81.5918 102.736V104.624C81.5918 104.957 81.857 105.227 82.1841 105.227H84.0375C84.3646 105.227 84.6298 104.957 84.6298 104.624V102.736C84.6298 102.403 84.3646 102.133 84.0375 102.133Z" fill="white"/>
</g>
<defs>
<filter id="filter0_d_655_21144" x="8" y="82.0938" width="65.189" height="11.3473" filterUnits="userSpaceOnUse" color-interpolation-filters="sRGB">
<feFlood flood-opacity="0" result="BackgroundImageFix"/>
<feColorMatrix in="SourceAlpha" type="matrix" values="0 0 0 0 0 0 0 0 0 0 0 0 0 0 0 0 0 0 127 0" result="hardAlpha"/>
<feOffset dx="2" dy="2"/>
<feGaussianBlur stdDeviation="1"/>
<feColorMatrix type="matrix" values="0 0 0 0 0 0 0 0 0 0 0 0 0 0 0 0 0 0 0.31 0"/>
<feBlend mode="normal" in2="BackgroundImageFix" result="effect1_dropShadow_655_21144"/>
<feBlend mode="normal" in="SourceGraphic" in2="effect1_dropShadow_655_21144" result="shape"/>
</filter>
<filter id="filter1_d_655_21144" x="0.847851" y="0.8" width="145.891" height="133.2" filterUnits="userSpaceOnUse" color-interpolation-filters="sRGB">
<feFlood flood-opacity="0" result="BackgroundImageFix"/>
<feColorMatrix in="SourceAlpha" type="matrix" values="0 0 0 0 0 0 0 0 0 0 0 0 0 0 0 0 0 0 127 0" result="hardAlpha"/>
<feOffset dx="2.4" dy="2.4"/>
<feGaussianBlur stdDeviation="4.8"/>
<feColorMatrix type="matrix" values="0 0 0 0 0 0 0 0 0 0 0 0 0 0 0 0 0 0 0.45 0"/>
<feBlend mode="normal" in2="BackgroundImageFix" result="effect1_dropShadow_655_21144"/>
<feBlend mode="normal" in="SourceGraphic" in2="effect1_dropShadow_655_21144" result="shape"/>
</filter>
<linearGradient id="paint0_linear_655_21144" x1="50.4846" y1="47.5793" x2="66.4027" y2="62.5109" gradientUnits="userSpaceOnUse">
<stop offset="0.74" stop-color="white"/>
</linearGradient>
<linearGradient id="paint1_linear_655_21144" x1="51.7824" y1="43.9263" x2="42.0973" y2="31.0491" gradientUnits="userSpaceOnUse">
<stop offset="0.74" stop-color="white"/>
</linearGradient>
</defs>
</svg>
