<svg width="12" height="14" viewBox="0 0 12 14" fill="none" xmlns="http://www.w3.org/2000/svg">
<path d="M12 11.2368C11.9207 11.8779 11.8859 12.1558 11.5898 12.7808L7.04199 13.7202C7.14653 13.0445 7.28619 12.523 7.5127 12.2104L12 11.2368ZM5.66602 6.81396L7.02441 6.51904V2.2251C7.53072 1.65676 7.84203 1.40119 8.45312 1.07861V6.2085L12 5.43896C11.9207 6.08032 11.886 6.35869 11.5898 6.98389L8.45312 7.64697V9.08838L12 8.33838C11.9207 8.97945 11.8859 9.25737 11.5898 9.88232L8.45312 10.5298V10.5435L7.02441 10.8384V7.94873L5.66602 8.23584V10.0571L5.64258 10.061C5.33001 10.6092 4.88931 11.2686 4.46387 11.7944L0 12.644C0.0400213 12.0697 0.124088 11.746 0.383789 11.1675L4.2373 10.3315V8.5376L0.665039 9.29346C0.70506 8.71915 0.789127 8.39538 1.04883 7.81689L4.2373 7.12354V1.42627C4.74359 0.857962 5.05487 0.602382 5.66602 0.279785V6.81396Z" fill="#5D5FED"/>
</svg>
